<?xml version="1.0" encoding="UTF-8"?>
<!DOCTYPE svg PUBLIC "-//W3C//DTD SVG 1.1//EN" "http://www.w3.org/Graphics/SVG/1.1/DTD/svg11.dtd">
<!-- Creator: CorelDRAW 2020 (64-Bit Оценочная версия) -->
<svg xmlns="http://www.w3.org/2000/svg" xml:space="preserve" width="79.4632mm" height="58.1923mm" version="1.1" style="shape-rendering:geometricPrecision; text-rendering:geometricPrecision; image-rendering:optimizeQuality; fill-rule:evenodd; clip-rule:evenodd"
viewBox="0 0 718.42 526.11"
 xmlns:xlink="http://www.w3.org/1999/xlink"
 xmlns:xodm="http://www.corel.com/coreldraw/odm/2003">
 <defs>
  <style type="text/css">
   <![CDATA[
    .fil10 {fill:#3DC53F}
    .fil2 {fill:#F7F7F7}
    .fil9 {fill:#FAB80A}
    .fil8 {fill:#FF5952}
    .fil13 {fill:#368CA8;fill-rule:nonzero}
    .fil14 {fill:#5CDB5C;fill-rule:nonzero}
    .fil12 {fill:#666666;fill-rule:nonzero}
    .fil11 {fill:#8F8F8F;fill-rule:nonzero}
    .fil1 {fill:#BFBFBF;fill-rule:nonzero}
    .fil15 {fill:#D94E7F;fill-rule:nonzero}
    .fil17 {fill:#FAB80A;fill-rule:nonzero}
    .fil16 {fill:#FFC830;fill-rule:nonzero}
    .fil6 {fill:url(#id0)}
    .fil0 {fill:url(#id1)}
    .fil4 {fill:url(#id2)}
    .fil5 {fill:url(#id3)}
    .fil3 {fill:url(#id4)}
    .fil7 {fill:url(#id5)}
   ]]>
  </style>
  <linearGradient id="id0" gradientUnits="userSpaceOnUse" x1="197.7" y1="64.74" x2="226.53" y2="63.86">
   <stop offset="0" style="stop-opacity:1; stop-color:#E6E6E6"/>
   <stop offset="1" style="stop-opacity:1; stop-color:white"/>
  </linearGradient>
  <linearGradient id="id1" gradientUnits="userSpaceOnUse" x1="180.39" y1="197.24" x2="165.22" y2="197.24">
   <stop offset="0" style="stop-opacity:1; stop-color:#F7F7F7"/>
   <stop offset="1" style="stop-opacity:1; stop-color:#E6E6E6"/>
  </linearGradient>
  <linearGradient id="id2" gradientUnits="userSpaceOnUse" xlink:href="#id0" x1="106.99" y1="98.87" x2="135.82" y2="97.99">
  </linearGradient>
  <linearGradient id="id3" gradientUnits="userSpaceOnUse" xlink:href="#id0" x1="266.42" y1="113.74" x2="295.24" y2="112.86">
  </linearGradient>
  <linearGradient id="id4" gradientUnits="userSpaceOnUse" xlink:href="#id0" x1="178.27" y1="145.24" x2="207.1" y2="144.37">
  </linearGradient>
  <linearGradient id="id5" gradientUnits="userSpaceOnUse" x1="313.5" y1="238.64" x2="344.34" y2="193.19">
   <stop offset="0" style="stop-opacity:1; stop-color:#E0E0E0"/>
   <stop offset="1" style="stop-opacity:1; stop-color:#F7F7F7"/>
  </linearGradient>
 </defs>
 <g id="Images">
  <metadata id="CorelCorpID_0Corel-Layer"/>
  <g id="Back-end_x0020_image">
   <path class="fil0" d="M383.77 318.05c0.01,1.48 -1.03,2.75 -3.14,3.48l-200.83 69.63c-4.52,1.56 -12.31,0.13 -17.33,-3.19l-154.61 -102.38c-2.53,-1.68 -3.89,-3.6 -4.04,-5.22l0 -202.35 379.94 37.82 0 202.2z"/>
   <path class="fil1" d="M384.14 112.05c2.03,0.2 3.53,1.96 3.44,3.97l0 202.01 0 0.02c0.01,1.72 -0.58,3.29 -1.77,4.61 -0.94,1.04 -2.25,1.89 -3.93,2.47l-200.83 69.63c-2.89,1 -6.66,1.07 -10.41,0.39 -3.62,-0.67 -7.34,-2.05 -10.27,-3.99l-154.61 -102.38c-1.58,-1.05 -2.85,-2.22 -3.77,-3.41 -1.17,-1.51 -1.83,-3.11 -1.97,-4.66 -0.01,-0.11 -0.01,-0.22 -0.01,-0.33l-0 0 0 -202.35c0,-2.11 1.71,-3.83 3.83,-3.83 0.23,0 0.46,0.02 0.68,0.06l3.15 12.81 0 193.04c0.04,0.13 0.17,0.32 0.37,0.59 0.42,0.55 1.07,1.13 1.95,1.71l154.61 102.38c2.08,1.38 4.77,2.37 7.43,2.86 2.54,0.47 4.93,0.48 6.55,-0.09l200.83 -69.63c0.25,-0.09 0.44,-0.17 0.57,-0.25l-0 -195.22 4.19 -10.41z"/>
   <path class="fil2" d="M6.96 74.36l200.83 -69.63c4.52,-1.57 12.31,-0.13 17.33,3.19l154.61 102.38c5.02,3.32 5.42,7.32 0.91,8.88l-200.83 69.63c-4.52,1.56 -12.31,0.13 -17.33,-3.19l-154.61 -102.38c-5.01,-3.32 -5.42,-7.32 -0.91,-8.88z"/>
   <path class="fil1" d="M5.72 70.75l200.83 -69.63c2.89,-1 6.66,-1.07 10.4,-0.39 3.62,0.67 7.34,2.05 10.27,4l154.61 102.38c2.79,1.84 4.58,4.02 5.33,6.18 0.36,1.04 0.49,2.08 0.39,3.09 -0.11,1.11 -0.47,2.15 -1.09,3.08 -0.95,1.44 -2.48,2.59 -4.59,3.32l-200.83 69.63c-2.89,1 -6.66,1.07 -10.41,0.39 -3.62,-0.67 -7.34,-2.05 -10.27,-3.99l-154.61 -102.38c-2.79,-1.85 -4.58,-4.02 -5.33,-6.18 -0.36,-1.04 -0.49,-2.07 -0.39,-3.09 0.11,-1.11 0.47,-2.15 1.09,-3.08 0.95,-1.43 2.48,-2.59 4.59,-3.32zm203.31 -62.43l-200.83 69.63c-0.16,0.06 -0.29,0.1 -0.4,0.15 0.34,0.55 1.06,1.22 2.17,1.95l154.61 102.38c2.08,1.38 4.77,2.37 7.43,2.86 2.54,0.47 4.93,0.48 6.55,-0.09l200.83 -69.63c0.16,-0.05 0.29,-0.1 0.4,-0.15 -0.34,-0.55 -1.06,-1.22 -2.17,-1.95l-154.61 -102.38c-2.08,-1.38 -4.77,-2.37 -7.43,-2.86 -2.54,-0.47 -4.92,-0.47 -6.55,0.09z"/>
   <path class="fil3" d="M163.73 112.61l55.46 -1.56 0.12 22.8c-0.17,7.3 -4.9,14.39 -13.74,18.95 -15.26,7.88 -37.01,5.28 -48.56,-5.82 -3.91,-3.75 -6.15,-7.99 -6.81,-12.26 0.26,-6.43 -1.23,-17.04 2.03,-21.24 0.29,-0.38 9.87,-0.81 11.5,-0.86z"/>
   <circle class="fil2" transform="matrix(0.744507 -0.384438 0.563574 0.5412 184.654 108.212)" r="37.12"/>
   <path class="fil1" d="M162.33 85.51c8.19,-4.23 18.08,-5.65 27.43,-4.53 9.41,1.13 18.37,4.84 24.65,10.86 2.35,2.26 4.17,4.69 5.47,7.21 2.06,3.99 2.83,8.2 2.36,12.31l0.12 22.47 0 0.08c-0.01,0.26 -0.02,0.53 -0.03,0.79l-0 0.02 -0 0.05 -0.01 0.08c-0.28,4.02 -1.73,7.94 -4.28,11.47 -2.58,3.55 -6.29,6.72 -11.06,9.18 -8.19,4.23 -18.08,5.65 -27.43,4.53 -9.41,-1.13 -18.37,-4.84 -24.65,-10.86 -2.14,-2.06 -3.85,-4.26 -5.12,-6.55 -1.11,-2.01 -1.9,-4.08 -2.36,-6.18l-0.02 -0.07c-0.08,-0.4 -0.16,-0.8 -0.22,-1.2l-0.05 -0.3 0.01 -0.28c0.02,-0.46 0.08,-0.99 0.15,-1.57l-0.35 -24.56c-0.06,-1.43 0.03,-2.87 0.26,-4.29 0.74,-4.41 2.9,-8.64 6.41,-12.3 2.32,-2.42 5.23,-4.58 8.7,-6.37zm-9 42.91l0.1 6.95c0.34,1.44 0.9,2.88 1.68,4.29 0.98,1.76 2.32,3.49 4.02,5.12 5.28,5.07 12.97,8.21 21.13,9.19 8.22,0.99 16.84,-0.23 23.91,-3.88 3.89,-2.01 6.88,-4.54 8.91,-7.34 1.87,-2.58 2.94,-5.4 3.14,-8.25l-0.15 -10.17 -0.41 0.43c-2.32,2.42 -5.23,4.58 -8.71,6.37 -8.19,4.23 -18.08,5.65 -27.43,4.53 -9.41,-1.13 -18.37,-4.84 -24.65,-10.86 -0.53,-0.51 -1.03,-1.02 -1.5,-1.54l-0.06 5.18zm62.5 -21.72c-0,-0.27 0.03,-0.53 0.09,-0.78 -0.3,-1.37 -0.78,-2.73 -1.47,-4.07 -1,-1.94 -2.42,-3.83 -4.28,-5.61 -5.28,-5.07 -12.97,-8.21 -21.13,-9.19 -8.22,-0.98 -16.84,0.23 -23.91,3.88 -2.86,1.48 -5.24,3.24 -7.1,5.18 -2.64,2.74 -4.25,5.86 -4.79,9.07 -0.53,3.16 -0.01,6.45 1.61,9.59 1,1.94 2.42,3.83 4.27,5.61 5.28,5.07 12.97,8.21 21.13,9.19 8.22,0.98 16.84,-0.23 23.91,-3.88 2.87,-1.48 5.24,-3.24 7.1,-5.18 2.42,-2.52 3.98,-5.36 4.63,-8.29l-0.08 -5.52z"/>
   <path class="fil4" d="M92.45 66.24l55.46 -1.56 0.12 22.8c-0.17,7.3 -4.9,14.39 -13.74,18.95 -15.26,7.88 -37.01,5.28 -48.56,-5.82 -3.9,-3.75 -6.15,-7.99 -6.81,-12.26 0.26,-6.43 -1.23,-17.04 2.03,-21.24 0.3,-0.38 9.87,-0.81 11.5,-0.86z"/>
   <path class="fil1" d="M92.37 63.19l55.46 -1.56 3.12 -0.09 0.02 3.13 0.12 22.8 0 0.08c-0.1,4.35 -1.57,8.6 -4.33,12.41 -2.57,3.55 -6.29,6.72 -11.06,9.18 -8.19,4.23 -18.08,5.65 -27.43,4.53 -9.41,-1.13 -18.37,-4.84 -24.65,-10.86 -2.14,-2.06 -3.84,-4.26 -5.12,-6.55 -1.34,-2.41 -2.2,-4.92 -2.59,-7.45l-0.05 -0.3 0.01 -0.29c0.07,-1.62 0.01,-3.54 -0.04,-5.56 -0.17,-6.33 -0.36,-13.49 2.71,-17.44l0.01 0c0.74,-0.94 2.91,-1.41 5.46,-1.6l0 -0c2.97,-0.22 7.29,-0.41 8.37,-0.44zm52.51 4.62l-52.35 1.48c-0.96,0.03 -5,0.21 -8.08,0.44l-0.01 0c-1,0.07 -0.56,-1.43 -1.07,-0.76l0 0.01c-1.74,2.24 -1.58,8.23 -1.44,13.54 0.05,2.01 0.1,3.94 0.05,5.64 0.3,1.72 0.92,3.45 1.85,5.14 0.98,1.76 2.32,3.48 4.02,5.12 5.28,5.07 12.97,8.21 21.13,9.19 8.22,0.99 16.84,-0.23 23.91,-3.88 3.89,-2.01 6.88,-4.54 8.91,-7.34 2.03,-2.79 3.1,-5.86 3.18,-8.95l-0.1 -19.6z"/>
   <circle class="fil2" transform="matrix(0.744507 -0.384438 0.563574 0.5412 113.373 61.8361)" r="37.12"/>
   <path class="fil1" d="M91.05 39.03c8.19,-4.23 18.08,-5.65 27.43,-4.53 9.41,1.13 18.37,4.84 24.65,10.86 2.35,2.26 4.17,4.69 5.47,7.21 2.24,4.35 2.96,8.94 2.21,13.4 -0.74,4.41 -2.9,8.64 -6.41,12.3 -2.32,2.42 -5.23,4.58 -8.71,6.37 -8.19,4.23 -18.08,5.65 -27.43,4.53 -9.41,-1.13 -18.37,-4.84 -24.65,-10.86 -2.35,-2.26 -4.17,-4.69 -5.47,-7.21 -2.24,-4.35 -2.96,-8.94 -2.21,-13.4 0.74,-4.41 2.9,-8.64 6.41,-12.3 2.32,-2.42 5.23,-4.58 8.7,-6.37zm26.71 1.55c-8.22,-0.98 -16.84,0.23 -23.91,3.88 -2.86,1.48 -5.24,3.24 -7.1,5.18 -2.64,2.74 -4.25,5.86 -4.79,9.07 -0.53,3.16 -0.01,6.45 1.61,9.59 1,1.94 2.42,3.83 4.27,5.61 5.28,5.07 12.97,8.21 21.13,9.19 8.22,0.98 16.84,-0.23 23.91,-3.88 2.87,-1.48 5.24,-3.24 7.1,-5.18 2.64,-2.74 4.25,-5.86 4.78,-9.07 0.53,-3.16 0.01,-6.45 -1.61,-9.59 -1,-1.94 -2.42,-3.83 -4.28,-5.61 -5.28,-5.07 -12.97,-8.21 -21.13,-9.19z"/>
   <path class="fil1" d="M75.66 61.46c-0.02,-1.68 1.33,-3.07 3.01,-3.09 1.68,-0.02 3.07,1.33 3.09,3.01l0.4 27.92c0.02,1.68 -1.33,3.07 -3.01,3.09 -1.68,0.02 -3.07,-1.33 -3.09,-3.01l-0.4 -27.92z"/>
   <path class="fil1" d="M144.55 60.33c-0.02,-1.68 1.33,-3.07 3.01,-3.09 1.68,-0.02 3.07,1.33 3.09,3.01l0.4 27.92c0.02,1.68 -1.33,3.07 -3.01,3.09 -1.68,0.02 -3.07,-1.33 -3.09,-3.01l-0.4 -27.92z"/>
   <path class="fil5" d="M251.87 81.11l55.46 -1.56 0.12 22.8c-0.17,7.3 -4.9,14.39 -13.74,18.95 -15.26,7.88 -37.01,5.28 -48.56,-5.82 -3.91,-3.75 -6.15,-7.99 -6.81,-12.26 0.26,-6.43 -1.23,-17.04 2.03,-21.24 0.29,-0.38 9.87,-0.81 11.5,-0.86z"/>
   <path class="fil1" d="M251.79 78.06l55.46 -1.56 3.12 -0.09 0.02 3.13 0.12 22.8 0 0.08c-0.1,4.35 -1.57,8.61 -4.33,12.41 -2.57,3.55 -6.29,6.72 -11.06,9.18 -8.19,4.23 -18.08,5.65 -27.43,4.53 -9.41,-1.13 -18.37,-4.84 -24.65,-10.86 -2.14,-2.06 -3.85,-4.26 -5.12,-6.55 -1.34,-2.41 -2.2,-4.92 -2.59,-7.45l-0.05 -0.3 0.01 -0.28c0.07,-1.61 0.01,-3.54 -0.04,-5.56 -0.17,-6.33 -0.36,-13.5 2.71,-17.44l0.01 0c0.74,-0.94 2.91,-1.41 5.45,-1.6l0 -0c2.97,-0.22 7.29,-0.41 8.37,-0.44zm52.51 4.62l-52.35 1.48c-0.96,0.03 -5,0.21 -8.08,0.44l-0.01 0c-1,0.07 -0.56,-1.43 -1.07,-0.76l0 0.01c-1.74,2.24 -1.58,8.24 -1.44,13.54 0.05,2.01 0.1,3.94 0.05,5.63 0.3,1.72 0.92,3.45 1.85,5.14 0.98,1.76 2.32,3.49 4.02,5.12 5.28,5.07 12.97,8.21 21.13,9.19 8.22,0.99 16.84,-0.23 23.91,-3.88 3.89,-2.01 6.88,-4.54 8.91,-7.34 2.03,-2.79 3.1,-5.86 3.18,-8.95l-0.1 -19.6z"/>
   <circle class="fil2" transform="matrix(0.744507 -0.384438 0.563574 0.5412 272.797 76.7029)" r="37.12"/>
   <path class="fil1" d="M250.47 53.9c8.19,-4.23 18.08,-5.65 27.43,-4.53 9.41,1.13 18.37,4.84 24.65,10.86 2.35,2.26 4.17,4.69 5.47,7.21 2.24,4.35 2.96,8.94 2.21,13.4 -0.74,4.41 -2.9,8.64 -6.41,12.3 -2.32,2.42 -5.23,4.58 -8.71,6.37 -8.19,4.23 -18.08,5.65 -27.43,4.53 -9.41,-1.13 -18.37,-4.84 -24.65,-10.86 -2.35,-2.26 -4.17,-4.69 -5.47,-7.21 -2.24,-4.35 -2.96,-8.94 -2.21,-13.4 0.74,-4.41 2.9,-8.64 6.41,-12.3 2.32,-2.42 5.23,-4.58 8.7,-6.37zm26.71 1.55c-8.22,-0.98 -16.84,0.23 -23.91,3.88 -2.86,1.48 -5.24,3.24 -7.1,5.18 -2.64,2.74 -4.25,5.86 -4.79,9.07 -0.53,3.16 -0.01,6.45 1.61,9.59 1,1.94 2.42,3.83 4.27,5.61 5.28,5.07 12.97,8.21 21.13,9.19 8.22,0.98 16.84,-0.23 23.91,-3.88 2.87,-1.48 5.24,-3.24 7.1,-5.18 2.63,-2.74 4.25,-5.86 4.79,-9.07 0.53,-3.16 0.01,-6.45 -1.61,-9.59 -1,-1.94 -2.42,-3.83 -4.28,-5.61 -5.28,-5.07 -12.97,-8.21 -21.13,-9.19z"/>
   <path class="fil1" d="M235.08 76.33c-0.02,-1.68 1.33,-3.07 3.01,-3.09 1.68,-0.02 3.07,1.33 3.09,3.01l0.4 27.92c0.02,1.68 -1.33,3.07 -3.01,3.09 -1.68,0.02 -3.07,-1.33 -3.09,-3.01l-0.4 -27.92z"/>
   <path class="fil1" d="M303.98 75.2c-0.02,-1.68 1.33,-3.07 3.01,-3.09 1.68,-0.02 3.07,1.33 3.09,3.01l0.4 27.92c0.02,1.68 -1.33,3.07 -3.01,3.09 -1.68,0.02 -3.07,-1.33 -3.09,-3.01l-0.4 -27.92z"/>
   <path class="fil6" d="M183.16 32.11l55.46 -1.56 0.12 22.8c-0.17,7.3 -4.9,14.39 -13.74,18.95 -15.26,7.88 -37.01,5.28 -48.56,-5.82 -3.9,-3.75 -6.15,-7.99 -6.81,-12.26 0.26,-6.43 -1.23,-17.04 2.03,-21.24 0.3,-0.38 9.87,-0.81 11.5,-0.86z"/>
   <path class="fil1" d="M183.08 29.06l55.46 -1.56 3.12 -0.09 0.02 3.13 0.12 22.8 0 0.08c-0.1,4.35 -1.57,8.6 -4.33,12.41 -2.57,3.55 -6.29,6.72 -11.06,9.18 -8.19,4.23 -18.08,5.65 -27.43,4.53 -9.41,-1.13 -18.37,-4.84 -24.65,-10.86 -2.14,-2.06 -3.84,-4.26 -5.12,-6.55 -1.34,-2.41 -2.2,-4.92 -2.59,-7.45l-0.05 -0.3 0.01 -0.29c0.07,-1.62 0.01,-3.54 -0.04,-5.56 -0.17,-6.33 -0.36,-13.49 2.71,-17.44l0.01 0c0.74,-0.94 2.91,-1.41 5.46,-1.6l0 -0c2.97,-0.22 7.29,-0.41 8.37,-0.44zm52.51 4.62l-52.35 1.48c-0.96,0.03 -5,0.21 -8.08,0.44l-0.01 0c-1,0.07 -0.56,-1.43 -1.07,-0.76l0 0.01c-1.74,2.24 -1.58,8.23 -1.44,13.54 0.05,2.01 0.1,3.94 0.05,5.64 0.3,1.72 0.92,3.45 1.85,5.14 0.98,1.76 2.32,3.48 4.02,5.12 5.28,5.07 12.97,8.21 21.13,9.19 8.22,0.99 16.84,-0.23 23.91,-3.88 3.89,-2.01 6.88,-4.54 8.91,-7.34 2.03,-2.79 3.1,-5.86 3.18,-8.95l-0.1 -19.6z"/>
   <circle class="fil2" transform="matrix(0.744507 -0.384438 0.563574 0.5412 204.083 27.7047)" r="37.12"/>
   <path class="fil1" d="M181.76 4.9c8.19,-4.23 18.07,-5.65 27.43,-4.53 9.41,1.13 18.37,4.84 24.65,10.86 2.35,2.26 4.17,4.69 5.47,7.21 2.24,4.35 2.96,8.94 2.21,13.4 -0.74,4.41 -2.9,8.64 -6.41,12.3 -2.32,2.42 -5.23,4.58 -8.7,6.37 -8.19,4.23 -18.08,5.65 -27.43,4.53 -9.41,-1.13 -18.37,-4.84 -24.65,-10.86 -2.35,-2.26 -4.17,-4.69 -5.47,-7.21 -2.24,-4.35 -2.96,-8.94 -2.21,-13.4 0.74,-4.41 2.9,-8.64 6.41,-12.3 2.32,-2.42 5.23,-4.58 8.7,-6.37zm26.71 1.55c-8.22,-0.98 -16.84,0.23 -23.91,3.88 -2.86,1.48 -5.24,3.24 -7.1,5.18 -2.64,2.74 -4.25,5.86 -4.79,9.07 -0.53,3.16 -0.01,6.45 1.61,9.59 1,1.94 2.42,3.83 4.27,5.61 5.28,5.07 12.97,8.21 21.13,9.19 8.22,0.98 16.84,-0.23 23.91,-3.88 2.87,-1.48 5.24,-3.24 7.1,-5.18 2.64,-2.74 4.25,-5.86 4.79,-9.07 0.53,-3.16 0.01,-6.45 -1.61,-9.59 -1,-1.94 -2.42,-3.83 -4.28,-5.61 -5.28,-5.07 -12.97,-8.21 -21.13,-9.19z"/>
   <path class="fil1" d="M166.37 27.33c-0.02,-1.68 1.33,-3.07 3.01,-3.09 1.68,-0.02 3.07,1.33 3.09,3.01l0.4 27.92c0.02,1.68 -1.33,3.07 -3.01,3.09 -1.68,0.02 -3.07,-1.33 -3.09,-3.01l-0.4 -27.92z"/>
   <path class="fil1" d="M235.26 26.2c-0.02,-1.68 1.33,-3.07 3.01,-3.09 1.68,-0.02 3.07,1.33 3.09,3.01l0.4 27.92c0.02,1.68 -1.33,3.07 -3.01,3.09 -1.68,0.02 -3.07,-1.33 -3.09,-3.01l-0.4 -27.92z"/>
   <path class="fil7" d="M651.17 64.04l-319.74 111.5c-18.49,6.45 -33.62,28.69 -33.62,49.43l0 250.04c0,12.07 5.13,21.08 13.06,25.23l23.08 15.42 355.1 -439.41 -11.91 -7.42c-6.18,-6.29 -15.55,-8.43 -25.98,-4.79z"/>
   <rect class="fil2" transform="matrix(-1.01106 0.352585 -0 1.29623 714.555 72.1341)" width="382.73" height="251.07" rx="29.09" ry="29.09"/>
   <circle class="fil8" transform="matrix(0.51441 -0.174072 -0 -0.670981 368.342 224.58)" r="17.22"/>
   <circle class="fil9" transform="matrix(0.51441 -0.174072 -0 -0.670981 392.963 216.531)" r="17.22"/>
   <circle class="fil10" transform="matrix(0.51441 -0.174072 -0 -0.670981 417.583 208.481)" r="17.22"/>
   <path class="fil11" d="M534.43 197.25l-1.81 0 0 -3.62 1.81 0 0 3.62zm0 262.19l-1.81 0 0 -3.62 1.81 0 0 3.62zm0 -9.04l-1.81 0 0 -3.62 1.81 0 0 3.62zm0 -9.04l-1.81 0 0 -3.62 1.81 0 0 3.62zm0 -9.04l-1.81 0 0 -3.62 1.81 0 0 3.62zm0 -9.04l-1.81 0 0 -3.62 1.81 0 0 3.62zm0 -9.04l-1.81 0 0 -3.62 1.81 0 0 3.62zm0 -9.04l-1.81 0 0 -3.62 1.81 0 0 3.62zm0 -9.04l-1.81 0 0 -3.62 1.81 0 0 3.62zm0 -9.04l-1.81 0 0 -3.62 1.81 0 0 3.62zm0 -9.04l-1.81 0 0 -3.62 1.81 0 0 3.62zm0 -9.04l-1.81 0 0 -3.62 1.81 0 0 3.62zm0 -9.04l-1.81 0 0 -3.62 1.81 0 0 3.62zm0 -9.04l-1.81 0 0 -3.62 1.81 0 0 3.62zm0 -9.04l-1.81 0 0 -3.62 1.81 0 0 3.62zm0 -9.04l-1.81 0 0 -3.62 1.81 0 0 3.62zm0 -9.04l-1.81 0 0 -3.62 1.81 0 0 3.62zm0 -9.04l-1.81 0 0 -3.62 1.81 0 0 3.62zm0 -9.04l-1.81 0 0 -3.62 1.81 0 0 3.62zm0 -9.04l-1.81 0 0 -3.62 1.81 0 0 3.62zm0 -9.04l-1.81 0 0 -3.62 1.81 0 0 3.62zm0 -9.04l-1.81 0 0 -3.62 1.81 0 0 3.62zm0 -9.04l-1.81 0 0 -3.62 1.81 0 0 3.62zm0 -9.04l-1.81 0 0 -3.62 1.81 0 0 3.62zm0 -9.04l-1.81 0 0 -3.62 1.81 0 0 3.62zm0 -9.04l-1.81 0 0 -3.62 1.81 0 0 3.62zm0 -9.04l-1.81 0 0 -3.62 1.81 0 0 3.62zm0 -9.04l-1.81 0 0 -3.62 1.81 0 0 3.62zm0 -9.04l-1.81 0 0 -3.62 1.81 0 0 3.62zm0 -9.04l-1.81 0 0 -3.62 1.81 0 0 3.62z"/>
   <path class="fil12" d="M351.57 283.77c-1.59,0.55 -3.33,-0.29 -3.89,-1.88 -0.55,-1.59 0.29,-3.33 1.88,-3.89l52.6 -18.34c1.59,-0.55 3.33,0.29 3.89,1.88 0.55,1.59 -0.29,3.33 -1.88,3.89l-52.6 18.34z"/>
   <path class="fil12" d="M422.55 259.02c-1.59,0.55 -3.33,-0.29 -3.89,-1.88 -0.55,-1.59 0.29,-3.33 1.88,-3.89l34.35 -11.98c1.59,-0.55 3.33,0.29 3.89,1.88 0.55,1.59 -0.29,3.33 -1.88,3.89l-34.35 11.98z"/>
   <path class="fil13" d="M351.57 306.65c-1.59,0.55 -3.33,-0.29 -3.89,-1.88 -0.55,-1.59 0.29,-3.33 1.88,-3.89l32.39 -11.3c1.59,-0.55 3.33,0.29 3.89,1.88 0.55,1.59 -0.29,3.33 -1.88,3.89l-32.39 11.3z"/>
   <path class="fil13" d="M400.95 289.43c-1.59,0.55 -3.33,-0.29 -3.89,-1.88 -0.55,-1.59 0.29,-3.33 1.88,-3.89l36.74 -12.82c1.59,-0.55 3.33,0.29 3.89,1.88 0.55,1.59 -0.29,3.33 -1.88,3.89l-36.74 12.82z"/>
   <path class="fil14" d="M453.62 271.05c-1.59,0.55 -3.33,-0.29 -3.89,-1.88 -0.55,-1.59 0.29,-3.33 1.88,-3.89l25.41 -8.86c1.59,-0.55 3.33,0.29 3.89,1.88 0.55,1.59 -0.29,3.33 -1.88,3.89l-25.41 8.86z"/>
   <path class="fil13" d="M372.42 322.34c-1.59,0.55 -3.33,-0.29 -3.89,-1.88 -0.55,-1.59 0.29,-3.33 1.88,-3.89l27 -9.42c1.59,-0.55 3.33,0.29 3.89,1.88 0.55,1.59 -0.29,3.33 -1.88,3.89l-27 9.42z"/>
   <path class="fil15" d="M415.22 307.41c-1.59,0.55 -3.33,-0.29 -3.89,-1.88 -0.55,-1.59 0.29,-3.33 1.88,-3.89l9.47 -3.3c1.59,-0.55 3.33,0.29 3.89,1.88 0.55,1.59 -0.29,3.33 -1.88,3.89l-9.47 3.3z"/>
   <path class="fil12" d="M437.7 299.57c-1.59,0.55 -3.33,-0.29 -3.89,-1.88 -0.55,-1.59 0.29,-3.33 1.88,-3.89l30.62 -10.68c1.59,-0.55 3.33,0.29 3.89,1.88 0.55,1.59 -0.29,3.33 -1.88,3.89l-30.62 10.68z"/>
   <path class="fil16" d="M372.42 345.31c-1.59,0.55 -3.33,-0.29 -3.89,-1.88 -0.55,-1.59 0.29,-3.33 1.88,-3.89l27 -9.42c1.59,-0.55 3.33,0.29 3.89,1.88 0.55,1.59 -0.29,3.33 -1.88,3.89l-27 9.42z"/>
   <path class="fil12" d="M415.11 330.41c-1.59,0.55 -3.33,-0.29 -3.89,-1.88 -0.55,-1.59 0.29,-3.33 1.88,-3.89l78.01 -27.21c1.59,-0.55 3.33,0.29 3.89,1.88 0.55,1.59 -0.29,3.33 -1.88,3.89l-78.01 27.21z"/>
   <path class="fil12" d="M394.37 360.61c-1.59,0.55 -3.33,-0.29 -3.89,-1.88 -0.55,-1.59 0.29,-3.33 1.88,-3.89l42.29 -14.75c1.59,-0.55 3.33,0.29 3.89,1.88 0.55,1.59 -0.29,3.33 -1.88,3.89l-42.29 14.75z"/>
   <path class="fil15" d="M451.43 340.71c-1.59,0.55 -3.33,-0.29 -3.89,-1.88 -0.55,-1.59 0.29,-3.33 1.88,-3.89l26.84 -9.36c1.59,-0.55 3.33,0.29 3.89,1.88 0.55,1.59 -0.29,3.33 -1.88,3.89l-26.84 9.36z"/>
   <path class="fil12" d="M394.37 383.58c-1.59,0.55 -3.33,-0.29 -3.89,-1.88 -0.55,-1.59 0.29,-3.33 1.88,-3.89l27.6 -9.63c1.59,-0.55 3.33,0.29 3.89,1.88 0.55,1.59 -0.29,3.33 -1.88,3.89l-27.6 9.63z"/>
   <path class="fil12" d="M438.26 368.27c-1.59,0.55 -3.33,-0.29 -3.89,-1.88 -0.55,-1.59 0.29,-3.33 1.88,-3.89l24.69 -8.61c1.59,-0.55 3.33,0.29 3.89,1.88 0.55,1.59 -0.29,3.33 -1.88,3.89l-24.69 8.61z"/>
   <path class="fil12" d="M476.44 354.95c-1.59,0.55 -3.33,-0.29 -3.89,-1.88 -0.55,-1.59 0.29,-3.33 1.88,-3.89l9.48 -3.31c1.59,-0.55 3.33,0.29 3.89,1.88 0.55,1.59 -0.29,3.33 -1.88,3.89l-9.48 3.31z"/>
   <path class="fil13" d="M351.57 436.78c-1.59,0.55 -3.33,-0.29 -3.89,-1.88 -0.55,-1.59 0.29,-3.33 1.88,-3.89l32.39 -11.3c1.59,-0.55 3.33,0.29 3.89,1.88 0.55,1.59 -0.29,3.33 -1.88,3.89l-32.39 11.3z"/>
   <path class="fil13" d="M400.95 419.55c-1.59,0.55 -3.33,-0.29 -3.89,-1.88 -0.55,-1.59 0.29,-3.33 1.88,-3.89l36.74 -12.82c1.59,-0.55 3.33,0.29 3.89,1.88 0.55,1.59 -0.29,3.33 -1.88,3.89l-36.74 12.82z"/>
   <path class="fil14" d="M453.62 401.18c-1.59,0.55 -3.33,-0.29 -3.89,-1.88 -0.55,-1.59 0.29,-3.33 1.88,-3.89l46.84 -16.34c1.59,-0.55 3.33,0.29 3.89,1.88 0.55,1.59 -0.29,3.33 -1.88,3.89l-46.84 16.34z"/>
   <path class="fil15" d="M372.42 452.47c-1.59,0.55 -3.33,-0.29 -3.89,-1.88 -0.55,-1.59 0.29,-3.33 1.88,-3.89l27 -9.42c1.59,-0.55 3.33,0.29 3.89,1.88 0.55,1.59 -0.29,3.33 -1.88,3.89l-27 9.42z"/>
   <path class="fil12" d="M415.22 437.54c-1.59,0.55 -3.33,-0.29 -3.89,-1.88 -0.55,-1.59 0.29,-3.33 1.88,-3.89l9.47 -3.3c1.59,-0.55 3.33,0.29 3.89,1.88 0.55,1.59 -0.29,3.33 -1.88,3.89l-9.47 3.3z"/>
   <path class="fil12" d="M437.7 429.7c-1.59,0.55 -3.33,-0.29 -3.89,-1.88 -0.55,-1.59 0.29,-3.33 1.88,-3.89l16.66 -5.81c1.59,-0.55 3.33,0.29 3.89,1.88 0.55,1.59 -0.29,3.33 -1.88,3.89l-16.66 5.81z"/>
   <path class="fil12" d="M468.99 418.79c-1.59,0.55 -3.33,-0.29 -3.89,-1.88 -0.55,-1.59 0.29,-3.33 1.88,-3.89l14.63 -5.1c1.59,-0.55 3.33,0.29 3.89,1.88 0.55,1.59 -0.29,3.33 -1.88,3.89l-14.63 5.1z"/>
   <path class="fil12" d="M372.42 475.43c-1.59,0.55 -3.33,-0.29 -3.89,-1.88 -0.55,-1.59 0.29,-3.33 1.88,-3.89l20.88 -7.28c1.59,-0.55 3.33,0.29 3.89,1.88 0.55,1.59 -0.29,3.33 -1.88,3.89l-20.88 7.28z"/>
   <path class="fil12" d="M407.08 463.35c-1.59,0.55 -3.33,-0.29 -3.89,-1.88 -0.55,-1.59 0.29,-3.33 1.88,-3.89l42.87 -14.95c1.59,-0.55 3.33,0.29 3.89,1.88 0.55,1.59 -0.29,3.33 -1.88,3.89l-42.87 14.95z"/>
   <path class="fil13" d="M555.58 212.62c-1.59,0.55 -3.33,-0.29 -3.89,-1.88 -0.55,-1.59 0.29,-3.33 1.88,-3.89l27.8 -9.7c1.59,-0.55 3.33,0.29 3.89,1.88 0.55,1.59 -0.29,3.33 -1.88,3.89l-27.8 9.7z"/>
   <path class="fil14" d="M599.62 197.26c-1.59,0.55 -3.33,-0.29 -3.89,-1.88 -0.55,-1.59 0.29,-3.33 1.88,-3.89l53.17 -18.54c1.59,-0.55 3.33,0.29 3.89,1.88 0.55,1.59 -0.29,3.33 -1.88,3.89l-53.17 18.54z"/>
   <path class="fil14" d="M574.54 228.85c-1.59,0.55 -3.33,-0.29 -3.89,-1.88 -0.55,-1.59 0.29,-3.33 1.88,-3.89l35.39 -12.34c1.59,-0.55 3.33,0.29 3.89,1.88 0.55,1.59 -0.29,3.33 -1.88,3.89l-35.39 12.34z"/>
   <path class="fil12" d="M629.11 209.82c-1.59,0.55 -3.33,-0.29 -3.89,-1.88 -0.55,-1.59 0.29,-3.33 1.88,-3.89l16.8 -5.86c1.59,-0.55 3.33,0.29 3.89,1.88 0.55,1.59 -0.29,3.33 -1.88,3.89l-16.8 5.86z"/>
   <path class="fil12" d="M589.09 246.46c-1.59,0.55 -3.33,-0.29 -3.89,-1.88 -0.55,-1.59 0.29,-3.33 1.88,-3.89l20.84 -7.27c1.59,-0.55 3.33,0.29 3.89,1.88 0.55,1.59 -0.29,3.33 -1.88,3.89l-20.84 7.27z"/>
   <path class="fil17" d="M626.14 233.54c-1.59,0.55 -3.33,-0.29 -3.89,-1.88 -0.55,-1.59 0.29,-3.33 1.88,-3.89l23.92 -8.34c1.59,-0.55 3.33,0.29 3.89,1.88 0.55,1.59 -0.29,3.33 -1.88,3.89l-23.92 8.34z"/>
   <path class="fil15" d="M589.09 269.43c-1.59,0.55 -3.33,-0.29 -3.89,-1.88 -0.55,-1.59 0.29,-3.33 1.88,-3.89l10.42 -3.63c1.59,-0.55 3.33,0.29 3.89,1.88 0.55,1.59 -0.29,3.33 -1.88,3.89l-10.42 3.63z"/>
   <path class="fil12" d="M611.42 261.64c-1.59,0.55 -3.33,-0.29 -3.89,-1.88 -0.55,-1.59 0.29,-3.33 1.88,-3.89l13.82 -4.82c1.59,-0.55 3.33,0.29 3.89,1.88 0.55,1.59 -0.29,3.33 -1.88,3.89l-13.82 4.82z"/>
   <path class="fil12" d="M635.59 253.21c-1.59,0.55 -3.33,-0.29 -3.89,-1.88 -0.55,-1.59 0.29,-3.33 1.88,-3.89l8.78 -3.06c1.59,-0.55 3.33,0.29 3.89,1.88 0.55,1.59 -0.29,3.33 -1.88,3.89l-8.78 3.06z"/>
   <path class="fil14" d="M574.54 305.4c-1.59,0.55 -3.33,-0.29 -3.89,-1.88 -0.55,-1.59 0.29,-3.33 1.88,-3.89l35.39 -12.34c1.59,-0.55 3.33,0.29 3.89,1.88 0.55,1.59 -0.29,3.33 -1.88,3.89l-35.39 12.34z"/>
   <path class="fil12" d="M629.11 286.37c-1.59,0.55 -3.33,-0.29 -3.89,-1.88 -0.55,-1.59 0.29,-3.33 1.88,-3.89l16.8 -5.86c1.59,-0.55 3.33,0.29 3.89,1.88 0.55,1.59 -0.29,3.33 -1.88,3.89l-16.8 5.86z"/>
   <path class="fil12" d="M589.09 323.01c-1.59,0.55 -3.33,-0.29 -3.89,-1.88 -0.55,-1.59 0.29,-3.33 1.88,-3.89l44.12 -15.39c1.59,-0.55 3.33,0.29 3.89,1.88 0.55,1.59 -0.29,3.33 -1.88,3.89l-44.12 15.39z"/>
   <g>
    <path class="fil1" d="M679.62 80.12l-319.48 111.41c-10.05,3.5 -19.13,11.23 -25.67,20.84 -6.51,9.58 -10.56,21.1 -10.56,32.24l0 249.84c0,3.54 0.41,6.87 1.18,9.95l-16.11 -10.85c-2.13,-2.02 -3.86,-4.64 -5.06,-7.76l-0 0c-1.23,-3.19 -1.9,-6.93 -1.9,-11.15l0 -249.84c0,-9.58 3.52,-19.53 9.18,-27.86 5.64,-8.28 13.35,-14.9 21.78,-17.84l319.48 -111.41c3.02,-1.05 5.9,-1.55 8.58,-1.56 2.58,-0 5,0.46 7.2,1.33l17.1 11.13c-1.87,0.33 -3.78,0.83 -5.73,1.51zm-344.43 440.51c0.2,0.16 0.4,0.31 0.6,0.46 4.42,3.25 9.79,5.03 15.73,5.03 3.54,0 7.31,-0.65 11.2,-2l319.48 -111.41c10.05,-3.5 19.13,-11.22 25.67,-20.84 6.51,-9.58 10.56,-21.1 10.56,-32.24l0 -249.84c0,-4.73 -0.74,-9.09 -2.08,-12.96 -2.02,-5.78 -5.41,-10.44 -9.79,-13.66 -0.9,-0.66 -1.84,-1.27 -2.82,-1.81l-31.55 -20.64 -0.32 -0.21 -0.31 -0.13c-3.2,-1.34 -6.73,-2.04 -10.51,-2.04 -3.56,0 -7.31,0.65 -11.16,1.99l-319.48 111.41c-10.05,3.5 -19.13,11.23 -25.67,20.84 -6.51,9.58 -10.56,21.1 -10.56,32.24l0 249.84c0,5.14 0.87,9.84 2.46,13.95l0 0.01c1.68,4.36 4.18,8.04 7.31,10.91l0.24 0.22 0.22 0.15 30.79 20.73zm368.54 -439.28l-0 -0 0 0zm6.84 48.79l-378.81 132.1 0 -17.63c0,-9.57 3.52,-19.53 9.18,-27.86 5.64,-8.29 13.35,-14.9 21.78,-17.84l319.48 -111.41c3,-1.05 5.89,-1.54 8.62,-1.54 4.24,0 8.03,1.24 11.1,3.5 3.11,2.29 5.55,5.67 7.03,9.92 1.05,3.02 1.63,6.5 1.63,10.38l0 20.36zm-378.81 135.42l378.81 -132.1 0 226.16c0,9.58 -3.52,19.53 -9.18,27.86 -5.63,8.28 -13.35,14.9 -21.78,17.84l-319.48 111.41c-3,1.05 -5.89,1.54 -8.62,1.54 -4.24,0 -8.03,-1.24 -11.1,-3.5 -3.11,-2.29 -5.55,-5.67 -7.03,-9.92 -1.05,-3.02 -1.63,-6.5 -1.63,-10.39l0 -228.9z"/>
   </g>
  </g>
 </g>
</svg>
