<?xml version="1.0" encoding="UTF-8"?>
<!DOCTYPE svg PUBLIC "-//W3C//DTD SVG 1.1//EN" "http://www.w3.org/Graphics/SVG/1.1/DTD/svg11.dtd">
<!-- Creator: CorelDRAW 2020 (64-Bit Оценочная версия) -->
<svg xmlns="http://www.w3.org/2000/svg" xml:space="preserve" width="4.4629mm" height="4.4367mm" version="1.1" style="shape-rendering:geometricPrecision; text-rendering:geometricPrecision; image-rendering:optimizeQuality; fill-rule:evenodd; clip-rule:evenodd"
viewBox="0 0 1.95 1.93"
 xmlns:xlink="http://www.w3.org/1999/xlink"
 xmlns:xodm="http://www.corel.com/coreldraw/odm/2003">
 <defs>
  <style type="text/css">
   <![CDATA[
    .fil0 {fill:#F7F7F7}
   ]]>
  </style>
 </defs>
 <g id="Слой_x0020_1">
  <metadata id="CorelCorpID_0Corel-Layer"/>
  <path class="fil0" d="M0.82 1.93l0 -0.68 -0.25 0 0 -0.28 0.25 0c0,-0.21 -0.04,-0.44 0.19,-0.56 0.12,-0.06 0.27,-0.03 0.4,-0.02l0 0.24c-0.11,0 -0.2,-0.01 -0.25,0.06 -0.04,0.05 -0.03,0.2 -0.03,0.28l0.27 0 -0.04 0.28 -0.23 0 0 0.68c0.03,0 0.07,-0.01 0.09,-0.02 0.03,-0.01 0.06,-0.02 0.09,-0.03 0.1,-0.04 0.21,-0.1 0.29,-0.17 0.05,-0.04 0.11,-0.1 0.14,-0.15 0.1,-0.14 0.17,-0.28 0.19,-0.45 0,-0.03 0.01,-0.06 0.01,-0.08l0 -0.12c-0.01,-0.1 -0.03,-0.2 -0.07,-0.3 -0.04,-0.1 -0.09,-0.19 -0.16,-0.27 -0.01,-0.01 -0.01,-0.01 -0.01,-0.02 -0.03,-0.04 -0.06,-0.06 -0.09,-0.09l-0.1 -0.08c-0.1,-0.07 -0.21,-0.11 -0.33,-0.14 -0.05,-0.01 -0.12,-0.02 -0.18,-0.02l-0.07 0c-0.06,0 -0.12,0.01 -0.18,0.02 -0.06,0.01 -0.12,0.03 -0.18,0.06 -0.05,0.02 -0.1,0.05 -0.15,0.08l-0.08 0.06c-0.08,0.06 -0.15,0.14 -0.2,0.23 -0.04,0.06 -0.03,0.06 -0.06,0.11 -0.02,0.04 -0.03,0.08 -0.05,0.13 -0.02,0.07 -0.04,0.14 -0.04,0.22l0 0.11c0,0.06 0.01,0.13 0.03,0.18 0.01,0.06 0.04,0.12 0.06,0.17 0.03,0.06 0.04,0.09 0.09,0.15 0.07,0.09 0.08,0.11 0.17,0.18 0.01,0.01 0.01,0.01 0.01,0.01 0.01,0.01 0.01,0.01 0.02,0.01 0.01,0.01 0.02,0.02 0.03,0.03 0.1,0.07 0.2,0.12 0.32,0.15 0.03,0.01 0.07,0.02 0.1,0.02z"/>
 </g>
</svg>
