<?xml version="1.0" encoding="UTF-8"?>
<!DOCTYPE svg PUBLIC "-//W3C//DTD SVG 1.1//EN" "http://www.w3.org/Graphics/SVG/1.1/DTD/svg11.dtd">
<!-- Creator: CorelDRAW 2020 (64-Bit Оценочная версия) -->
<svg xmlns="http://www.w3.org/2000/svg" xml:space="preserve" width="4.4081mm" height="4.4081mm" version="1.1" style="shape-rendering:geometricPrecision; text-rendering:geometricPrecision; image-rendering:optimizeQuality; fill-rule:evenodd; clip-rule:evenodd"
viewBox="0 0 1.85 1.85"
 xmlns:xlink="http://www.w3.org/1999/xlink"
 xmlns:xodm="http://www.corel.com/coreldraw/odm/2003">
 <defs>
  <style type="text/css">
   <![CDATA[
    .fil0 {fill:#F7F7F7}
   ]]>
  </style>
 </defs>
 <g id="Слой_x0020_1">
  <metadata id="CorelCorpID_0Corel-Layer"/>
  <path class="fil0" d="M1.85 0.92c0,-0.51 -0.41,-0.92 -0.92,-0.92 -0.51,0 -0.92,0.41 -0.92,0.92 0,0.51 0.41,0.92 0.92,0.92 0.51,0 0.92,-0.41 0.92,-0.92zm-1.17 0.42l-0.19 0 0 -0.61 0.19 0 0 0.61zm-0.09 -0.68c-0.06,0 -0.11,-0.05 -0.11,-0.11 0,-0.06 0.05,-0.11 0.11,-0.11 0.06,0 0.11,0.05 0.11,0.11 0,0.06 -0.05,0.11 -0.11,0.11zm0.8 0.68l-0.19 0c0,0 0,-0.23 0,-0.32 0,-0.09 -0.03,-0.14 -0.1,-0.14 -0.08,0 -0.11,0.05 -0.11,0.14 0,0.09 0,0.32 0,0.32l-0.18 0 0 -0.61 0.18 0 0 0.08c0,0 0.05,-0.1 0.18,-0.1 0.13,0 0.22,0.08 0.22,0.24 -0,0.16 -0,0.38 -0,0.38z"/>
 </g>
</svg>
