<?xml version="1.0" encoding="UTF-8"?>
<!DOCTYPE svg PUBLIC "-//W3C//DTD SVG 1.1//EN" "http://www.w3.org/Graphics/SVG/1.1/DTD/svg11.dtd">
<!-- Creator: CorelDRAW 2020 (64-Bit Оценочная версия) -->
<svg xmlns="http://www.w3.org/2000/svg" xml:space="preserve" width="522.897mm" height="1142.91mm" version="1.1" style="shape-rendering:geometricPrecision; text-rendering:geometricPrecision; image-rendering:optimizeQuality; fill-rule:evenodd; clip-rule:evenodd"
viewBox="0 0 68355239717.72 149406372094.19"
 xmlns:xlink="http://www.w3.org/1999/xlink"
 xmlns:xodm="http://www.corel.com/coreldraw/odm/2003">
 <defs>
  <style type="text/css">
   <![CDATA[
    .fil0 {fill:#F7F7F7}
   ]]>
  </style>
 </defs>
 <g id="Слой_x0020_1">
  <metadata id="CorelCorpID_0Corel-Layer"/>
  <g id="_1859006974624">
   <g id="pinterest_2_">
    <g>
     <path class="fil0" d="M68070666261.16 148837199036.24c-157182748.02,0 -284612673.81,127416853.37 -284612673.81,284560384.14 0,116553674.43 70068157.8,216662247.65 170359744.86,260677077.37 -849707.14,-19896219.44 -183013.85,-43714164.12 4915228.98,-65335942.67 5503487.77,-23112034.14 36655058.67,-155091161.22 36655058.67,-155091161.22 0,0 -9085330.16,-18170660.33 -9085330.16,-45008333.45 0,-42184691.27 24445420.72,-73676145.03 54864936.25,-73676145.03 25909531.49,0 38380617.78,19451757.24 38380617.78,42720660.39 0,26001038.41 -16562752.97,64956842.56 -25099041.6,100984425.19 -7124467.54,30197284.42 15137859.46,54825718.99 44890681.69,54825718.99 53936794.61,0 90251970.42,-69270740.33 90251970.42,-151313232.56 0,-62355431.48 -42001677.43,-109037034.37 -118423030.13,-109037034.37 -86343317.59,0 -140084025.93,64368583.77 -140084025.93,136266880.02 0,24811448.42 7268264.13,42276198.2 18745846.69,55806150.31 5255111.83,6235543.15 5987167.22,8745447.31 4065521.84,15869914.85 -1359531.42,5242039.42 -4470766.78,17856922.3 -5791080.95,22837513.37 -1882428.12,7215974.46 -7725798.74,9778168.29 -14248935.07,7137539.96 -39753221.62,-16262087.37 -58250692.38,-59767092.81 -58250692.38,-108723296.35 0,-80852902.24 68172657.26,-177771805.58 203354526.63,-177771805.58 108684079.1,0 180216347.65,78604446.43 180216347.65,163013046.22 0,111638445.45 -62080910.71,195053541.52 -153600905.63,195053541.52 -30707108.71,0 -59610223.8,-16628115.06 -69506043.85,-35491613.51 0,0 -16536608.14,65584318.6 -20000798.78,78225346.32 -6065601.72,21935516.57 -17869994.72,43884105.55 -28654739.16,60969755.22 25582721.05,7555857.32 52642625.27,11673668.83 80656815.97,11673668.83 157182748.02,0 284573456.56,-127416853.37 284573456.56,-284612673.81 0,-157143530.77 -127390708.54,-284560384.14 -284573456.56,-284560384.14z"/>
    </g>
   </g>
   <g></g><g></g><g></g><g></g><g></g><g></g><g></g><g></g><g></g><g></g><g></g><g></g><g></g><g></g><g></g></g></g>
</svg>
