<?xml version="1.0" encoding="UTF-8"?>
<!DOCTYPE svg PUBLIC "-//W3C//DTD SVG 1.1//EN" "http://www.w3.org/Graphics/SVG/1.1/DTD/svg11.dtd">
<!-- Creator: CorelDRAW 2020 (64-Bit Оценочная версия) -->
<svg xmlns="http://www.w3.org/2000/svg" xml:space="preserve" width="74.1739mm" height="68.7454mm" version="1.1" style="shape-rendering:geometricPrecision; text-rendering:geometricPrecision; image-rendering:optimizeQuality; fill-rule:evenodd; clip-rule:evenodd"
viewBox="0 0 790.91 733.03"
 xmlns:xlink="http://www.w3.org/1999/xlink"
 xmlns:xodm="http://www.corel.com/coreldraw/odm/2003">
 <defs>
  <style type="text/css">
   <![CDATA[
    .fil4 {fill:#3DC53F}
    .fil5 {fill:#469BB8}
    .fil11 {fill:#71BDD6}
    .fil13 {fill:#E6E6E6}
    .fil1 {fill:#F7F7F7}
    .fil3 {fill:#FAB80A}
    .fil2 {fill:#FF5952}
    .fil7 {fill:#68B7D1;fill-rule:nonzero}
    .fil8 {fill:#94C5D6;fill-rule:nonzero}
    .fil6 {fill:#9FD0E0;fill-rule:nonzero}
    .fil10 {fill:#BFBFBF;fill-rule:nonzero}
    .fil12 {fill:#E6E6E6;fill-rule:nonzero}
    .fil9 {fill:#F7F7F7;fill-rule:nonzero}
    .fil0 {fill:url(#id0)}
   ]]>
  </style>
  <linearGradient id="id0" gradientUnits="objectBoundingBox" x1="95.9026%" y1="38.9543%" x2="88.2001%" y2="28.824%">
   <stop offset="0" style="stop-opacity:1; stop-color:#E0E0E0"/>
   <stop offset="1" style="stop-opacity:1; stop-color:#F7F7F7"/>
  </linearGradient>
 </defs>
 <g id="Images">
  <metadata id="CorelCorpID_0Corel-Layer"/>
  <g id="Front-end_x0020_image">
   <path class="fil0" d="M380.32 6.55l367.45 128.14c21.25,7.41 38.63,32.97 38.63,56.8l0 287.36c0,10.98 -3.69,19.75 -9.75,25.3l-33.46 22.53 -15.55 -337.99 -399.51 -162.33 30.47 -19.84c6.2,-2.59 13.68,-2.77 21.71,0.03z"/>
   <rect class="fil1" transform="matrix(0.985195 0.343565 -0 1.26307 307.473 15.8609)" width="451.4" height="296.12" rx="34.31" ry="34.31"/>
   <circle class="fil2" transform="matrix(0.501251 0.169619 -0 0.653817 339.431 66.2194)" r="20.31"/>
   <circle class="fil3" transform="matrix(0.501251 0.169619 -0 0.653817 367.726 75.4706)" r="20.31"/>
   <circle class="fil4" transform="matrix(0.501251 0.169619 -0 0.653817 396.021 84.7218)" r="20.31"/>
   <polygon class="fil5" points="307.47,82.95 752.19,238.03 752.19,501.63 749.52,516.49 737.45,530.48 722.05,533.39 346.11,403.35 326.78,390.76 312.99,370.72 307.47,340.57 "/>
   <path class="fil6" d="M337.39 93.83l-1.81 1.13 -1.13 -1.81 1.81 -1.13 1.13 1.81zm-2.75 43.38l1.5 -1.36 1.43 1.58 -1.5 1.36 -1.43 -1.58zm4.51 -1.21l-1.43 -1.58 1.58 -1.43 1.43 1.58 -1.58 1.43zm3.16 -2.86l-1.43 -1.58 1.58 -1.43 1.43 1.58 -1.58 1.43zm3.16 -2.86l-1.43 -1.58 1.58 -1.43 1.43 1.58 -1.58 1.43zm3.16 -2.86l-1.43 -1.58 1.58 -1.43 1.43 1.58 -1.58 1.43zm3.16 -2.86l-1.43 -1.58 1.58 -1.43 0.65 0.71 -0.09 -0.15 1.81 -1.13 1.13 1.81 -1.81 1.13 -0.41 -0.65 -1.42 1.29zm3.16 -2.86l-1.43 -1.58 1.58 -1.43 1.43 1.58 -1.58 1.43zm3.16 -2.86l-1.43 -1.58 1.58 -1.43 1.43 1.58 -1.58 1.43zm3.16 -2.86l-1.43 -1.58 1.58 -1.43 1.43 1.58 -1.58 1.43zm3.16 -2.86l-1.43 -1.58 1.58 -1.43 1.43 1.58 -1.58 1.43zm3.16 -2.86l-1.43 -1.58 1.58 -1.43 1.43 1.58 -1.58 1.43zm3.16 -2.86l-1.43 -1.58 1.51 -1.37 0.95 -0.86 0.67 1.08 0.05 0.08 -0.89 0.55 0.65 0.72 -1.51 1.37zm1.07 0.29l1.81 -1.13 1.13 1.81 -1.81 1.13 -1.13 -1.81zm2.25 3.62l1.81 -1.13 1.13 1.81 -1.81 1.13 -1.13 -1.81zm2.25 3.62l1.81 -1.13 1.13 1.81 -1.81 1.13 -1.13 -1.81zm2.25 3.62l1.81 -1.13 1.13 1.81 -1.81 1.13 -1.13 -1.81zm2.25 3.62l1.81 -1.13 1.13 1.81 -1.81 1.13 -1.13 -1.81zm2.25 3.62l1.81 -1.13 1.13 1.81 -1.81 1.13 -1.13 -1.81zm2.25 3.62l1.81 -1.13 1.13 1.81 -1.81 1.13 -1.13 -1.81zm2.25 3.62l1.81 -1.13 0.43 0.68 1.39 -1.26 1.44 1.58 -1.58 1.43 -0.56 -0.61 -1.8 1.12 -1.13 -1.81zm2.25 3.62l1.81 -1.13 1.13 1.81 -1.81 1.13 -1.13 -1.81zm2.25 3.62l1.81 -1.13 1.13 1.81 -1.81 1.13 -1.13 -1.81zm2.25 3.62l1.81 -1.13 1.13 1.81 -1.81 1.13 -1.13 -1.81zm2.25 3.62l1.81 -1.13 1.13 1.81 -1.81 1.13 -1.13 -1.81zm2.25 3.62l1.81 -1.13 1.13 1.81 -1.81 1.13 -1.13 -1.81zm2.25 3.62l1.81 -1.13 1.13 1.81 -1.81 1.13 -1.13 -1.81zm2.25 3.62l1.81 -1.13 1.13 1.81 -1.81 1.13 -1.13 -1.81zm2.25 3.62l1.81 -1.13 1.13 1.81 -1.81 1.13 -1.13 -1.81zm73.35 25.58l1.5 -1.36 1.43 1.58 -1.5 1.36 -1.43 -1.58zm4.51 -1.21l-1.43 -1.58 1.58 -1.43 1.43 1.58 -1.58 1.43zm3.16 -2.86l-1.43 -1.58 1.58 -1.43 1.43 1.58 -1.58 1.43zm3.16 -2.86l-1.43 -1.58 1.58 -1.43 1.43 1.58 -1.58 1.43zm3.16 -2.86l-1.43 -1.58 1.58 -1.43 1.43 1.58 -1.58 1.43zm3.16 -2.86l-1.43 -1.58 1.58 -1.43 0.65 0.71 -0.09 -0.15 1.81 -1.13 1.13 1.81 -1.81 1.13 -0.41 -0.65 -1.42 1.29zm3.16 -2.86l-1.43 -1.58 1.58 -1.43 1.43 1.58 -1.58 1.43zm3.16 -2.86l-1.43 -1.58 1.58 -1.43 1.43 1.58 -1.58 1.43zm3.16 -2.86l-1.43 -1.58 1.58 -1.43 1.43 1.58 -1.58 1.43zm3.16 -2.86l-1.43 -1.58 1.58 -1.43 1.43 1.58 -1.58 1.43zm3.16 -2.86l-1.43 -1.58 1.58 -1.43 1.43 1.58 -1.58 1.43zm3.16 -2.86l-1.43 -1.58 1.51 -1.37 0.95 -0.86 0.67 1.08 0.05 0.08 -0.89 0.55 0.65 0.72 -1.51 1.37zm1.07 0.29l1.81 -1.13 1.13 1.81 -1.81 1.13 -1.13 -1.81zm2.25 3.62l1.81 -1.13 1.13 1.81 -1.81 1.13 -1.13 -1.81zm2.25 3.62l1.81 -1.13 1.13 1.81 -1.81 1.13 -1.13 -1.81zm2.25 3.62l1.81 -1.13 1.13 1.81 -1.81 1.13 -1.13 -1.81zm2.25 3.62l1.81 -1.13 1.13 1.81 -1.81 1.13 -1.13 -1.81zm2.25 3.62l1.81 -1.13 1.13 1.81 -1.81 1.13 -1.13 -1.81zm2.25 3.62l1.81 -1.13 1.13 1.81 -1.81 1.13 -1.13 -1.81zm2.25 3.62l1.81 -1.13 0.43 0.68 1.39 -1.26 1.44 1.58 -1.58 1.43 -0.56 -0.61 -1.8 1.12 -1.13 -1.81zm2.25 3.62l1.81 -1.13 1.13 1.81 -1.81 1.13 -1.13 -1.81zm2.25 3.62l1.81 -1.13 1.13 1.81 -1.81 1.13 -1.13 -1.81zm2.25 3.62l1.81 -1.13 1.13 1.81 -1.81 1.13 -1.13 -1.81zm2.25 3.62l1.81 -1.13 1.13 1.81 -1.81 1.13 -1.13 -1.81zm2.25 3.62l1.81 -1.13 1.13 1.81 -1.81 1.13 -1.13 -1.81zm2.25 3.62l1.81 -1.13 1.13 1.81 -1.81 1.13 -1.13 -1.81zm2.25 3.62l1.81 -1.13 1.13 1.81 -1.81 1.13 -1.13 -1.81zm2.25 3.62l1.81 -1.13 0.45 0.73 0.55 -0.5 1.43 1.58 -1.5 1.36 -0.72 -0.79 -0.91 0.56 -1.13 -1.81zm1.8 -42.52l-0.57 0.52 -1.44 -1.58 1.52 -1.38 0.72 0.79 0.9 -0.56 1.13 1.81 -1.81 1.13 -0.45 -0.72zm-3.59 0.38l1.44 1.58 -1.58 1.44 -1.44 -1.58 1.58 -1.44zm-3.16 2.87l1.44 1.58 -1.58 1.43 -1.44 -1.58 1.58 -1.43zm-3.16 2.87l1.44 1.58 -1.58 1.43 -1.44 -1.58 1.58 -1.43zm-3.16 2.87l1.44 1.58 -1.58 1.43 -1.44 -1.58 1.58 -1.43zm-6.31 5.74l1.44 1.58 -1.58 1.43 -1.44 -1.58 1.58 -1.43zm-3.16 2.87l1.44 1.58 -1.58 1.43 -1.44 -1.58 1.58 -1.43zm-3.16 2.87l1.44 1.58 -1.58 1.43 -1.44 -1.58 1.58 -1.43zm-3.16 2.87l1.44 1.58 -1.58 1.43 -1.44 -1.58 1.58 -1.43zm-3.16 2.87l1.44 1.58 -1.58 1.43 -1.44 -1.58 1.58 -1.43zm-3.16 2.87l1.44 1.58 -1.46 1.32 -0.95 0.86 -0.68 -1.08 -0.09 -0.14 0.88 -0.55 -0.6 -0.67 1.46 -1.32zm-1.05 -0.4l-1.81 1.13 -1.13 -1.81 1.81 -1.13 1.13 1.81zm-2.26 -3.62l-1.81 1.13 -1.13 -1.81 1.81 -1.13 1.13 1.81zm-2.26 -3.62l-1.81 1.13 -1.13 -1.81 1.81 -1.13 1.13 1.81zm-2.26 -3.62l-1.81 1.13 -1.13 -1.81 1.81 -1.13 1.13 1.81zm-2.26 -3.62l-1.81 1.13 -1.13 -1.81 1.81 -1.13 1.13 1.81zm-2.26 -3.62l-1.81 1.13 -1.13 -1.81 1.81 -1.13 1.13 1.81zm-2.26 -3.62l-1.81 1.13 -1.13 -1.81 1.81 -1.13 1.13 1.81zm-4.51 -7.24l-1.81 1.13 -1.13 -1.81 1.81 -1.13 1.13 1.81zm-2.26 -3.62l-1.81 1.13 -1.13 -1.81 1.81 -1.13 1.13 1.81zm-2.26 -3.62l-1.81 1.13 -1.13 -1.81 1.81 -1.13 1.13 1.81zm-2.26 -3.62l-1.81 1.13 -1.13 -1.81 1.81 -1.13 1.13 1.81zm-2.26 -3.62l-1.81 1.13 -1.13 -1.81 1.81 -1.13 1.13 1.81zm-2.26 -3.62l-1.81 1.13 -1.13 -1.81 1.81 -1.13 1.13 1.81zm-2.26 -3.62l-1.81 1.13 -1.13 -1.81 1.81 -1.13 1.13 1.81zm-2.26 -3.62l-1.81 1.13 -1.13 -1.81 1.81 -1.13 1.13 1.81zm74.08 67.39l-1.43 -1.58 1.58 -1.43 1.43 1.58 -1.58 1.43zm3.16 -2.86l-1.43 -1.58 1.58 -1.43 1.43 1.58 -1.58 1.43zm3.16 -2.86l-1.43 -1.58 1.58 -1.43 1.43 1.58 -1.58 1.43zm3.16 -2.86l-1.43 -1.58 1.58 -1.43 1.43 1.58 -1.58 1.43zm3.16 -2.86l-1.43 -1.58 1.58 -1.43 0.65 0.71 -0.09 -0.15 1.81 -1.13 1.13 1.81 -1.81 1.13 -0.41 -0.65 -1.42 1.29zm3.16 -2.86l-1.43 -1.58 1.58 -1.43 1.43 1.58 -1.58 1.43zm3.16 -2.86l-1.43 -1.58 1.58 -1.43 1.43 1.58 -1.58 1.43zm3.16 -2.86l-1.43 -1.58 1.58 -1.43 1.43 1.58 -1.58 1.43zm3.16 -2.86l-1.43 -1.58 1.58 -1.43 1.43 1.58 -1.58 1.43zm3.16 -2.86l-1.43 -1.58 1.58 -1.43 1.43 1.58 -1.58 1.43zm3.16 -2.86l-1.43 -1.58 1.51 -1.37 0.95 -0.86 0.67 1.08 0.05 0.08 -0.89 0.55 0.65 0.72 -1.51 1.37zm1.07 0.29l1.81 -1.13 1.13 1.81 -1.81 1.13 -1.13 -1.81zm2.25 3.62l1.81 -1.13 1.13 1.81 -1.81 1.13 -1.13 -1.81zm2.25 3.62l1.81 -1.13 1.13 1.81 -1.81 1.13 -1.13 -1.81zm2.25 3.62l1.81 -1.13 1.13 1.81 -1.81 1.13 -1.13 -1.81zm2.25 3.62l1.81 -1.13 1.13 1.81 -1.81 1.13 -1.13 -1.81zm2.25 3.62l1.81 -1.13 1.13 1.81 -1.81 1.13 -1.13 -1.81zm2.25 3.62l1.81 -1.13 1.13 1.81 -1.81 1.13 -1.13 -1.81zm2.25 3.62l1.81 -1.13 0.43 0.68 1.39 -1.26 1.44 1.58 -1.58 1.43 -0.56 -0.61 -1.8 1.12 -1.13 -1.81zm2.25 3.62l1.81 -1.13 1.13 1.81 -1.81 1.13 -1.13 -1.81zm2.25 3.62l1.81 -1.13 1.13 1.81 -1.81 1.13 -1.13 -1.81zm2.25 3.62l1.81 -1.13 1.13 1.81 -1.81 1.13 -1.13 -1.81zm2.25 3.62l1.81 -1.13 1.13 1.81 -1.81 1.13 -1.13 -1.81zm2.25 3.62l1.81 -1.13 1.13 1.81 -1.81 1.13 -1.13 -1.81zm2.25 3.62l1.81 -1.13 1.13 1.81 -1.81 1.13 -1.13 -1.81zm2.25 3.62l1.81 -1.13 1.13 1.81 -1.81 1.13 -1.13 -1.81zm2.25 3.62l1.81 -1.13 0.45 0.73 0.49 -0.44 1.43 1.58 -1.43 1.3 -0.72 -0.79 -0.91 0.56 -1.13 -1.81zm1.8 -42.52l-0.57 0.52 -1.44 -1.58 1.52 -1.38 0.72 0.79 0.9 -0.56 1.13 1.81 -1.81 1.13 -0.45 -0.72zm-3.59 0.38l1.44 1.58 -1.58 1.44 -1.44 -1.58 1.58 -1.44zm-3.16 2.87l1.44 1.58 -1.58 1.43 -1.44 -1.58 1.58 -1.43zm-3.16 2.87l1.44 1.58 -1.58 1.43 -1.44 -1.58 1.58 -1.43zm-3.16 2.87l1.44 1.58 -1.58 1.43 -1.44 -1.58 1.58 -1.43zm-6.31 5.74l1.44 1.58 -1.58 1.43 -1.44 -1.58 1.58 -1.43zm-3.16 2.87l1.44 1.58 -1.58 1.43 -1.44 -1.58 1.58 -1.43zm-3.16 2.87l1.44 1.58 -1.58 1.43 -1.44 -1.58 1.58 -1.43zm-3.16 2.87l1.44 1.58 -1.58 1.43 -1.44 -1.58 1.58 -1.43zm-3.16 2.87l1.44 1.58 -1.58 1.43 -1.44 -1.58 1.58 -1.43zm-3.16 2.87l1.44 1.58 -1.46 1.32 -0.95 0.86 -0.68 -1.08 -0.09 -0.14 0.88 -0.55 -0.6 -0.67 1.46 -1.32zm-1.05 -0.4l-1.81 1.13 -1.13 -1.81 1.81 -1.13 1.13 1.81zm-2.26 -3.62l-1.81 1.13 -1.13 -1.81 1.81 -1.13 1.13 1.81zm-2.26 -3.62l-1.81 1.13 -1.13 -1.81 1.81 -1.13 1.13 1.81zm-2.26 -3.62l-1.81 1.13 -1.13 -1.81 1.81 -1.13 1.13 1.81zm-2.26 -3.62l-1.81 1.13 -1.13 -1.81 1.81 -1.13 1.13 1.81zm-2.26 -3.62l-1.81 1.13 -1.13 -1.81 1.81 -1.13 1.13 1.81zm-2.26 -3.62l-1.81 1.13 -1.13 -1.81 1.81 -1.13 1.13 1.81zm-4.51 -7.24l-1.81 1.13 -1.13 -1.81 1.81 -1.13 1.13 1.81zm-2.26 -3.62l-1.81 1.13 -1.13 -1.81 1.81 -1.13 1.13 1.81zm-2.26 -3.62l-1.81 1.13 -1.13 -1.81 1.81 -1.13 1.13 1.81zm-2.26 -3.62l-1.81 1.13 -1.13 -1.81 1.81 -1.13 1.13 1.81zm-2.26 -3.62l-1.81 1.13 -1.13 -1.81 1.81 -1.13 1.13 1.81zm-2.26 -3.62l-1.81 1.13 -1.13 -1.81 1.81 -1.13 1.13 1.81zm-2.26 -3.62l-1.81 1.13 -1.13 -1.81 1.81 -1.13 1.13 1.81zm71.76 63.84l-1.43 -1.58 1.58 -1.43 1.43 1.58 -1.58 1.43zm3.16 -2.86l-1.43 -1.58 1.58 -1.43 1.43 1.58 -1.58 1.43zm3.16 -2.86l-1.43 -1.58 1.58 -1.43 1.43 1.58 -1.58 1.43zm3.16 -2.86l-1.43 -1.58 1.58 -1.43 1.43 1.58 -1.58 1.43zm3.16 -2.86l-1.43 -1.58 1.58 -1.43 0.99 1.1 -0.37 -0.59 1.73 -1.08 -0.77 -0.86 1.58 -1.43 1.43 1.58 -1.58 1.43 -0.31 -0.35 0.86 1.38 -1.81 1.13 -0.41 -0.65 -1.49 1.35zm6.32 -5.73l-1.43 -1.58 1.58 -1.43 1.43 1.58 -1.58 1.43zm3.16 -2.86l-1.43 -1.58 1.58 -1.43 1.43 1.58 -1.58 1.43zm3.16 -2.86l-1.43 -1.58 1.58 -1.43 1.43 1.58 -1.58 1.43zm3.16 -2.86l-1.43 -1.58 1.58 -1.43 1.43 1.58 -1.58 1.43zm3.16 -2.86l-1.43 -1.58 1.58 -1.43 0.47 0.52 0.96 -0.6 1.13 1.81 -1.81 1.13 -0.26 -0.42 -0.64 0.58zm-0.04 43.76l-0.09 -0.14 0.93 -0.58 -0.85 -0.93 1.5 -1.36 1.43 1.58 -1.5 1.36 -0.47 -0.52 -0.96 0.6zm0.59 -3.08l-1.81 1.13 -1.13 -1.81 1.81 -1.13 1.13 1.81zm-2.26 -3.62l-1.81 1.13 -1.13 -1.81 1.81 -1.13 1.13 1.81zm-2.26 -3.62l-1.81 1.13 -1.13 -1.81 1.81 -1.13 1.13 1.81zm-2.26 -3.62l-1.81 1.13 -1.13 -1.81 1.81 -1.13 1.13 1.81zm-2.26 -3.62l-1.81 1.13 -1.13 -1.81 1.81 -1.13 1.13 1.81zm-2.26 -3.62l-1.81 1.13 -1.13 -1.81 1.81 -1.13 1.13 1.81zm-2.26 -3.62l-1.81 1.13 -1.13 -1.81 1.81 -1.13 1.13 1.81zm-4.51 -7.24l-1.81 1.13 -1.13 -1.81 1.81 -1.13 1.13 1.81zm-2.26 -3.62l-1.81 1.13 -1.13 -1.81 1.81 -1.13 1.13 1.81zm-2.26 -3.62l-1.81 1.13 -1.13 -1.81 1.81 -1.13 1.13 1.81zm-2.26 -3.62l-1.81 1.13 -1.13 -1.81 1.81 -1.13 1.13 1.81zm-2.26 -3.62l-1.81 1.13 -1.13 -1.81 1.81 -1.13 1.13 1.81zm-2.26 -3.62l-1.81 1.13 -1.13 -1.81 1.81 -1.13 1.13 1.81zm-2.26 -3.62l-1.81 1.13 -1.13 -1.81 1.81 -1.13 1.13 1.81zm35.52 50.88l-1.43 -1.58 1.58 -1.43 1.43 1.58 -1.58 1.43zm3.16 -2.86l-1.43 -1.58 1.58 -1.43 1.43 1.58 -1.58 1.43zm3.16 -2.86l-1.43 -1.58 1.58 -1.43 1.43 1.58 -1.58 1.43zm3.16 -2.86l-1.43 -1.58 1.58 -1.43 1.43 1.58 -1.58 1.43zm3.16 -2.86l-1.43 -1.58 1.58 -1.43 0.65 0.71 -0.09 -0.15 1.81 -1.13 1.13 1.81 -1.81 1.13 -0.41 -0.65 -1.42 1.29zm3.16 -2.86l-1.43 -1.58 1.58 -1.43 1.43 1.58 -1.58 1.43zm3.16 -2.86l-1.43 -1.58 1.58 -1.43 1.43 1.58 -1.58 1.43zm3.16 -2.86l-1.43 -1.58 1.58 -1.43 1.43 1.58 -1.58 1.43zm3.16 -2.86l-1.43 -1.58 1.58 -1.43 1.43 1.58 -1.58 1.43zm3.16 -2.86l-1.43 -1.58 1.58 -1.43 1.43 1.58 -1.58 1.43zm3.16 -2.86l-1.43 -1.58 1.51 -1.37 0.95 -0.86 0.67 1.08 0.05 0.08 -0.89 0.55 0.65 0.72 -1.51 1.37zm1.07 0.29l1.81 -1.13 1.13 1.81 -1.81 1.13 -1.13 -1.81zm2.25 3.62l1.81 -1.13 1.13 1.81 -1.81 1.13 -1.13 -1.81zm2.25 3.62l1.81 -1.13 1.13 1.81 -1.81 1.13 -1.13 -1.81zm2.25 3.62l1.81 -1.13 1.13 1.81 -1.81 1.13 -1.13 -1.81zm2.25 3.62l1.81 -1.13 1.13 1.81 -1.81 1.13 -1.13 -1.81zm2.25 3.62l1.81 -1.13 1.13 1.81 -1.81 1.13 -1.13 -1.81zm2.25 3.62l1.81 -1.13 1.13 1.81 -1.81 1.13 -1.13 -1.81zm2.25 3.62l1.81 -1.13 0.43 0.68 1.39 -1.26 1.44 1.58 -1.58 1.43 -0.56 -0.61 -1.8 1.12 -1.13 -1.81zm2.25 3.62l1.81 -1.13 1.13 1.81 -1.81 1.13 -1.13 -1.81zm2.25 3.62l1.81 -1.13 1.13 1.81 -1.81 1.13 -1.13 -1.81zm2.25 3.62l1.81 -1.13 1.13 1.81 -1.81 1.13 -1.13 -1.81zm2.25 3.62l1.81 -1.13 1.13 1.81 -1.81 1.13 -1.13 -1.81zm2.25 3.62l1.81 -1.13 1.13 1.81 -1.81 1.13 -1.13 -1.81zm2.25 3.62l1.81 -1.13 1.13 1.81 -1.81 1.13 -1.13 -1.81zm2.25 3.62l1.81 -1.13 1.13 1.81 -1.81 1.13 -1.13 -1.81zm2.25 3.62l1.81 -1.13 1.13 1.81 -1.81 1.13 -1.13 -1.81zm2.75 -43.38l-1.52 1.38 -1.44 -1.58 1.52 -1.38 1.44 1.58zm-4.53 1.24l1.44 1.58 -1.58 1.44 -1.44 -1.58 1.58 -1.44zm-3.16 2.87l1.44 1.58 -1.58 1.43 -1.44 -1.58 1.58 -1.43zm-3.16 2.87l1.44 1.58 -1.58 1.43 -1.44 -1.58 1.58 -1.43zm-3.16 2.87l1.44 1.58 -1.58 1.43 -1.44 -1.58 1.58 -1.43zm-6.31 5.74l1.44 1.58 -1.58 1.43 -1.44 -1.58 1.58 -1.43zm-3.16 2.87l1.44 1.58 -1.58 1.43 -1.44 -1.58 1.58 -1.43zm-3.16 2.87l1.44 1.58 -1.58 1.43 -1.44 -1.58 1.58 -1.43zm-3.16 2.87l1.44 1.58 -1.58 1.43 -1.44 -1.58 1.58 -1.43zm-3.16 2.87l1.44 1.58 -1.58 1.43 -1.44 -1.58 1.58 -1.43zm-3.16 2.87l1.44 1.58 -1.46 1.32 -0.95 0.86 -0.68 -1.08 -0.09 -0.14 0.88 -0.55 -0.6 -0.67 1.46 -1.32zm-1.05 -0.4l-1.81 1.13 -1.13 -1.81 1.81 -1.13 1.13 1.81zm-2.26 -3.62l-1.81 1.13 -1.13 -1.81 1.81 -1.13 1.13 1.81zm-2.26 -3.62l-1.81 1.13 -1.13 -1.81 1.81 -1.13 1.13 1.81zm-2.26 -3.62l-1.81 1.13 -1.13 -1.81 1.81 -1.13 1.13 1.81zm-2.26 -3.62l-1.81 1.13 -1.13 -1.81 1.81 -1.13 1.13 1.81zm-2.26 -3.62l-1.81 1.13 -1.13 -1.81 1.81 -1.13 1.13 1.81zm-2.26 -3.62l-1.81 1.13 -1.13 -1.81 1.81 -1.13 1.13 1.81zm-4.51 -7.24l-1.81 1.13 -1.13 -1.81 1.81 -1.13 1.13 1.81zm-2.26 -3.62l-1.81 1.13 -1.13 -1.81 1.81 -1.13 1.13 1.81zm-2.26 -3.62l-1.81 1.13 -1.13 -1.81 1.81 -1.13 1.13 1.81zm-2.26 -3.62l-1.81 1.13 -1.13 -1.81 1.81 -1.13 1.13 1.81zm-2.26 -3.62l-1.81 1.13 -1.13 -1.81 1.81 -1.13 1.13 1.81zm-2.26 -3.62l-1.81 1.13 -1.13 -1.81 1.81 -1.13 1.13 1.81zm-2.26 -3.62l-1.81 1.13 -1.13 -1.81 1.81 -1.13 1.13 1.81zm-256.26 -91.96l-1.52 1.38 -1.44 -1.58 1.52 -1.38 1.44 1.58zm-4.53 1.24l1.44 1.58 -1.58 1.44 -1.44 -1.58 1.58 -1.44zm-3.16 2.87l1.44 1.58 -1.58 1.43 -1.44 -1.58 1.58 -1.43zm-3.16 2.87l1.44 1.58 -1.58 1.43 -1.44 -1.58 1.58 -1.43zm-3.16 2.87l1.44 1.58 -1.58 1.43 -1.44 -1.58 1.58 -1.43zm-6.31 5.74l1.44 1.58 -1.58 1.43 -1.44 -1.58 1.58 -1.43zm-3.16 2.87l1.44 1.58 -1.58 1.43 -1.44 -1.58 1.58 -1.43zm-3.16 2.87l1.44 1.58 -1.58 1.43 -1.44 -1.58 1.58 -1.43zm-3.16 2.87l1.44 1.58 -1.58 1.43 -1.44 -1.58 1.58 -1.43zm-3.16 2.87l1.44 1.58 -1.58 1.43 -1.44 -1.58 1.58 -1.43zm-3.16 2.87l1.44 1.58 -1.46 1.32 -0.95 0.86 -0.68 -1.08 -0.09 -0.14 0.88 -0.55 -0.6 -0.67 1.46 -1.32zm-1.05 -0.4l-1.81 1.13 -1.13 -1.81 1.81 -1.13 1.13 1.81zm-2.26 -3.62l-1.81 1.13 -1.13 -1.81 1.81 -1.13 1.13 1.81zm-2.26 -3.62l-1.81 1.13 -1.13 -1.81 1.81 -1.13 1.13 1.81zm-2.26 -3.62l-1.81 1.13 -1.13 -1.81 1.81 -1.13 1.13 1.81zm-2.26 -3.62l-1.81 1.13 -1.13 -1.81 1.81 -1.13 1.13 1.81zm-2.26 -3.62l-1.81 1.13 -1.13 -1.81 1.81 -1.13 1.13 1.81zm-2.26 -3.62l-1.81 1.13 -1.13 -1.81 1.81 -1.13 1.13 1.81zm-4.51 -7.24l-1.81 1.13 -1.13 -1.81 1.81 -1.13 1.13 1.81zm-2.26 -3.62l-1.81 1.13 -1.13 -1.81 1.81 -1.13 1.13 1.81zm-2.26 -3.62l-1.81 1.13 -1.13 -1.81 1.81 -1.13 1.13 1.81zm-2.26 -3.62l-1.81 1.13 -1.13 -1.81 1.81 -1.13 1.13 1.81zm-2.26 -3.62l-1.81 1.13 -1.13 -1.81 1.81 -1.13 1.13 1.81zm-2.26 -3.62l-1.81 1.13 -1.13 -1.81 1.81 -1.13 1.13 1.81zm-2.26 -3.62l-1.81 1.13 -1.13 -1.81 1.81 -1.13 1.13 1.81z"/>
   <path class="fil7" d="M307.77 127.43l26.69 9.31 0 -44.15 1.81 0 0 44.78 34.4 11.99 0 -44.15 1.81 0 0 44.78 34.31 11.96 0 -44.15 1.81 0 0 44.78 34.21 11.93 0 -44.15 1.81 0 0 44.78 34.4 11.99 0 -44.15 1.81 0 0 44.78 34.31 11.96 0 -44.15 1.81 0 0 44.78 34.22 11.93 0 -44.15 1.81 0 0 44.78 34.4 11.99 0 -44.15 1.81 0 0 44.78 34.31 11.96 0 -44.15 1.81 0 0 44.78 34.21 11.93 0 -44.15 1.81 0 0 44.78 34.4 11.99 0 -44.15 1.81 0 0 44.78 34.31 11.96 0 -44.15 1.81 0 0 44.78 18.9 6.59 -0.59 1.7 -18.31 -6.38 0 43.23 18.9 6.59 -0.59 1.7 -18.31 -6.38 0 43.23 18.9 6.59 -0.59 1.7 -18.31 -6.38 0 43.23 18.9 6.59 -0.59 1.7 -18.31 -6.38 0 43.23 18.9 6.59 -0.59 1.7 -18.31 -6.38 0 43.23 17.65 6.15 -0.59 1.7 -17.05 -5.95 0 27.77 -1.81 0 0 -28.4 -34.31 -11.96 0 33.56 -1.81 0 0 -34.19 -34.4 -11.99 0 33.66 -1.81 0 0 -34.29 -34.21 -11.93 0 33.76 -1.81 0 0 -34.39 -34.31 -11.96 0 33.86 -1.81 0 0 -34.49 -34.4 -11.99 0 33.96 -1.81 0 0 -34.59 -34.22 -11.93 0 34.07 -1.81 0 0 -34.7 -34.31 -11.96 0 34.17 -1.81 0 0 -34.8 -34.4 -11.99 0 34.27 -1.81 0 0 -34.9 -34.21 -11.93 0 34.37 -1.81 0 0 -35 -34.31 -11.96 0 34.47 -1.81 0 0 -35.1 -34.4 -11.99 0 31.29 -1.81 0 0 -31.92 -24.66 -8.6 0.59 -1.7 24.07 8.39 0 -43.23 -27.28 -9.51 0.59 -1.7 26.69 9.31 0 -43.23 -27.28 -9.51 0.59 -1.7 26.69 9.31 0 -43.23 -27.28 -9.51 0.59 -1.7 26.69 9.31 0 -43.23 -27.28 -9.51 0.59 -1.7 26.69 9.31 0 -43.23 -27.28 -9.51 0.59 -1.7zm424.01 149.77l-34.31 -11.96 0 43.23 34.31 11.96 0 -43.23zm-36.12 -12.6l-34.4 -11.99 0 43.23 34.4 11.99 0 -43.23zm-36.2 -12.62l-34.21 -11.93 0 43.23 34.21 11.93 0 -43.23zm-36.01 -12.56l-34.31 -11.96 0 43.23 34.31 11.96 0 -43.23zm-36.12 -12.59l-34.4 -11.99 0 43.23 34.4 11.99 0 -43.23zm-36.2 -12.62l-34.22 -11.93 0 43.23 34.22 11.93 0 -43.23zm-36.02 -12.56l-34.31 -11.96 0 43.23 34.31 11.96 0 -43.23zm-36.12 -12.59l-34.4 -11.99 0 43.23 34.4 11.99 0 -43.23zm-36.2 -12.62l-34.21 -11.93 0 43.23 34.21 11.93 0 -43.23zm-36.01 -12.56l-34.31 -11.96 0 43.23 34.31 11.96 0 -43.23zm-36.12 -12.6l-34.4 -11.99 0 43.23 34.4 11.99 0 -43.23zm-34.4 211.8l34.4 11.99 0 -43.23 -34.4 -11.99 0 43.23zm36.2 12.62l34.31 11.96 0 -43.23 -34.31 -11.96 0 43.23zm36.12 12.59l34.21 11.93 0 -43.23 -34.21 -11.93 0 43.23zm36.01 12.56l34.4 11.99 0 -43.23 -34.4 -11.99 0 43.23zm36.2 12.62l34.31 11.96 0 -43.23 -34.31 -11.96 0 43.23zm36.12 12.6l34.22 11.93 0 -43.23 -34.22 -11.93 0 43.23zm36.02 12.56l34.4 11.99 0 -43.23 -34.4 -11.99 0 43.23zm36.2 12.62l34.31 11.96 0 -43.23 -34.31 -11.96 0 43.23zm36.12 12.6l34.21 11.93 0 -43.23 -34.21 -11.93 0 43.23zm36.01 12.56l34.4 11.99 0 -43.23 -34.4 -11.99 0 43.23zm36.2 12.62l34.31 11.96 0 -43.23 -34.31 -11.96 0 43.23zm-361.2 -171.1l34.4 11.99 0 -43.23 -34.4 -11.99 0 43.23zm36.2 12.62l34.31 11.96 0 -43.23 -34.31 -11.96 0 43.23zm36.12 12.6l34.21 11.93 0 -43.23 -34.21 -11.93 0 43.23zm36.01 12.56l34.4 11.99 0 -43.23 -34.4 -11.99 0 43.23zm36.2 12.62l34.31 11.96 0 -43.23 -34.31 -11.96 0 43.23zm36.12 12.6l34.22 11.93 0 -43.23 -34.22 -11.93 0 43.23zm36.02 12.56l34.4 11.99 0 -43.23 -34.4 -11.99 0 43.23zm36.2 12.62l34.31 11.96 0 -43.23 -34.31 -11.96 0 43.23zm36.12 12.59l34.21 11.93 0 -43.23 -34.21 -11.93 0 43.23zm36.01 12.56l34.4 11.99 0 -43.23 -34.4 -11.99 0 43.23zm36.2 12.62l34.31 11.96 0 -43.23 -34.31 -11.96 0 43.23zm-361.2 -171.1l34.4 11.99 0 -43.23 -34.4 -11.99 0 43.23zm36.2 12.62l34.31 11.96 0 -43.23 -34.31 -11.96 0 43.23zm36.12 12.6l34.21 11.93 0 -43.23 -34.21 -11.93 0 43.23zm36.01 12.56l34.4 11.99 0 -43.23 -34.4 -11.99 0 43.23zm36.2 12.62l34.31 11.96 0 -43.23 -34.31 -11.96 0 43.23zm36.12 12.6l34.22 11.93 0 -43.23 -34.22 -11.93 0 43.23zm36.02 12.56l34.4 11.99 0 -43.23 -34.4 -11.99 0 43.23zm36.2 12.62l34.31 11.96 0 -43.23 -34.31 -11.96 0 43.23zm36.12 12.59l34.21 11.93 0 -43.23 -34.21 -11.93 0 43.23zm36.01 12.56l34.4 11.99 0 -43.23 -34.4 -11.99 0 43.23zm36.2 12.62l34.31 11.96 0 -43.23 -34.31 -11.96 0 43.23zm-361.2 -171.1l34.4 11.99 0 -43.23 -34.4 -11.99 0 43.23zm36.2 12.62l34.31 11.96 0 -43.23 -34.31 -11.96 0 43.23zm36.12 12.6l34.21 11.93 0 -43.23 -34.21 -11.93 0 43.24zm36.01 12.56l34.4 11.99 0 -43.23 -34.4 -11.99 0 43.23zm36.2 12.62l34.31 11.96 0 -43.23 -34.31 -11.96 0 43.23zm36.12 12.6l34.22 11.93 0 -43.23 -34.22 -11.93 0 43.23zm36.02 12.56l34.4 11.99 0 -43.23 -34.4 -11.99 0 43.23zm36.2 12.62l34.31 11.96 0 -43.23 -34.31 -11.96 0 43.23zm36.12 12.59l34.21 11.93 0 -43.23 -34.21 -11.93 0 43.23zm36.01 12.56l34.4 11.99 0 -43.23 -34.4 -11.99 0 43.23zm36.2 12.62l34.31 11.96 0 -43.23 -34.31 -11.96 0 43.23z"/>
   <path class="fil8" d="M339 99.79l-7.22 0.03 -0.03 -7.22 7.22 -0.03 0.03 7.22zm-6.16 297.28l-0 -1.15 7.22 -0.03 0 1.15 -7.22 0.03zm7.19 -8.4l-7.22 0.03 -0.03 -7.22 7.22 -0.03 0.03 7.22zm-0.05 -14.44l-7.22 0.03 -0.03 -7.22 7.22 -0.03 0.03 7.22zm-0.05 -14.44l-7.22 0.03 -0.03 -7.22 7.22 -0.03 0.03 7.22zm-0.05 -14.44l-7.22 0.03 -0.03 -7.22 7.22 -0.03 0.03 7.22zm-0.05 -14.44l-7.22 0.03 -0.03 -7.22 7.22 -0.03 0.03 7.22zm-0.05 -14.44l-7.22 0.03 -0.03 -7.22 7.22 -0.03 0.03 7.22zm-0.05 -14.44l-7.22 0.03 -0.03 -7.22 7.22 -0.03 0.03 7.22zm-0.05 -14.44l-7.22 0.03 -0.03 -7.22 7.22 -0.03 0.03 7.22zm-0.05 -14.44l-7.22 0.03 -0.03 -7.22 7.22 -0.03 0.03 7.22zm-0.05 -14.44l-7.22 0.03 -0.03 -7.22 7.22 -0.03 0.03 7.22zm-0.05 -14.44l-7.22 0.03 -0.03 -7.22 7.22 -0.03 0.03 7.22zm-0.05 -14.44l-7.22 0.03 -0.03 -7.22 7.22 -0.03 0.03 7.22zm-0.05 -14.44l-7.22 0.03 -0.03 -7.22 7.22 -0.03 0.03 7.22zm-0.05 -14.44l-7.22 0.03 -0.03 -7.22 7.22 -0.03 0.03 7.22zm-0.05 -14.44l-7.22 0.03 -0.03 -7.22 7.22 -0.03 0.03 7.22zm-0.05 -14.44l-7.22 0.03 -0.03 -7.22 7.22 -0.03 0.03 7.22zm-0.05 -14.44l-7.22 0.03 -0.03 -7.22 7.22 -0.03 0.03 7.22zm-0.05 -14.44l-7.22 0.03 -0.03 -7.22 7.22 -0.03 0.03 7.22zm-0.05 -14.44l-7.22 0.03 -0.03 -7.22 7.22 -0.03 0.03 7.22zm-0.05 -14.44l-7.22 0.03 -0.03 -7.22 7.22 -0.03 0.03 7.22z"/>
   <path class="fil8" d="M736.32 238.35l-7.22 0.03 -0.03 -7.22 7.22 -0.03 0.03 7.22zm1.03 288.88l-7.22 0.03 -0.03 -7.22 7.22 -0.03 0.03 7.22zm-0.05 -14.44l-7.22 0.03 -0.03 -7.22 7.22 -0.03 0.03 7.22zm-0.05 -14.44l-7.22 0.03 -0.03 -7.22 7.22 -0.03 0.03 7.22zm-0.05 -14.44l-7.22 0.03 -0.03 -7.22 7.22 -0.03 0.03 7.22zm-0.05 -14.44l-7.22 0.03 -0.03 -7.22 7.22 -0.03 0.03 7.22zm-0.05 -14.44l-7.22 0.03 -0.03 -7.22 7.22 -0.03 0.03 7.22zm-0.05 -14.44l-7.22 0.03 -0.03 -7.22 7.22 -0.03 0.03 7.22zm-0.05 -14.44l-7.22 0.03 -0.03 -7.22 7.22 -0.03 0.03 7.22zm-0.05 -14.44l-7.22 0.03 -0.03 -7.22 7.22 -0.03 0.03 7.22zm-0.05 -14.44l-7.22 0.03 -0.03 -7.22 7.22 -0.03 0.03 7.22zm-0.05 -14.44l-7.22 0.03 -0.03 -7.22 7.22 -0.03 0.03 7.22zm-0.05 -14.44l-7.22 0.03 -0.03 -7.22 7.22 -0.03 0.03 7.22zm-0.05 -14.44l-7.22 0.03 -0.03 -7.22 7.22 -0.03 0.03 7.22zm-0.05 -14.44l-7.22 0.03 -0.03 -7.22 7.22 -0.03 0.03 7.22zm-0.05 -14.44l-7.22 0.03 -0.03 -7.22 7.22 -0.03 0.03 7.22zm-0.05 -14.44l-7.22 0.03 -0.03 -7.22 7.22 -0.03 0.03 7.22zm-0.05 -14.44l-7.22 0.03 -0.03 -7.22 7.22 -0.03 0.03 7.22zm-0.05 -14.44l-7.22 0.03 -0.03 -7.22 7.22 -0.03 0.03 7.22zm-0.05 -14.44l-7.22 0.03 -0.03 -7.22 7.22 -0.03 0.03 7.22zm-0.05 -14.44l-7.22 0.03 -0.03 -7.22 7.22 -0.03 0.03 7.22z"/>
   <path class="fil8" d="M446.4 182.66l-7.22 0.03 -0.03 -7.22 7.22 -0.03 0.03 7.22zm-6.32 254.37l-0.01 -1.57 7.22 -0.03 0.01 1.57 -7.22 0.03zm7.19 -8.82l-7.22 0.03 -0.03 -7.22 7.22 -0.03 0.03 7.22zm-0.05 -14.44l-7.22 0.03 -0.03 -7.22 7.22 -0.03 0.03 7.22zm-0.05 -14.44l-7.22 0.03 -0.03 -7.22 7.22 -0.03 0.03 7.22zm-0.05 -14.44l-7.22 0.03 -0.03 -7.22 7.22 -0.03 0.03 7.22zm-0.05 -14.44l-7.22 0.03 -0.03 -7.22 7.22 -0.03 0.03 7.22zm-0.05 -14.44l-7.22 0.03 -0.03 -7.22 7.22 -0.03 0.03 7.22zm-0.05 -14.44l-7.22 0.03 -0.03 -7.22 7.22 -0.03 0.03 7.22zm-0.05 -14.44l-7.22 0.03 -0.03 -7.22 7.22 -0.03 0.03 7.22zm-0.05 -14.44l-7.22 0.03 -0.03 -7.22 7.22 -0.03 0.03 7.22zm-0.05 -14.44l-7.22 0.03 -0.03 -7.22 7.22 -0.03 0.03 7.22zm-0.05 -14.44l-7.22 0.03 -0.03 -7.22 7.22 -0.03 0.03 7.22zm-0.05 -14.44l-7.22 0.03 -0.03 -7.22 7.22 -0.03 0.03 7.22zm-0.05 -14.44l-7.22 0.03 -0.03 -7.22 7.22 -0.03 0.03 7.22zm-0.05 -14.44l-7.22 0.03 -0.03 -7.22 7.22 -0.03 0.03 7.22zm-0.05 -14.44l-7.22 0.03 -0.03 -7.22 7.22 -0.03 0.03 7.22zm-0.05 -14.44l-7.22 0.03 -0.03 -7.22 7.22 -0.03 0.03 7.22zm-0.05 -14.44l-7.22 0.03 -0.03 -7.22 7.22 -0.03 0.03 7.22z"/>
   <path class="fil8" d="M590.94 233.07l-7.22 0.03 -0.03 -7.22 7.22 -0.03 0.03 7.22zm-6.32 253.96l-0.01 -1.16 7.22 -0.03 0.01 1.16 -7.22 0.03zm7.19 -8.41l-7.22 0.03 -0.03 -7.22 7.22 -0.03 0.03 7.22zm-0.05 -14.44l-7.22 0.03 -0.03 -7.22 7.22 -0.03 0.03 7.22zm-0.05 -14.44l-7.22 0.03 -0.03 -7.22 7.22 -0.03 0.03 7.22zm-0.05 -14.44l-7.22 0.03 -0.03 -7.22 7.22 -0.03 0.03 7.22zm-0.05 -14.44l-7.22 0.03 -0.03 -7.22 7.22 -0.03 0.03 7.22zm-0.05 -14.44l-7.22 0.03 -0.03 -7.22 7.22 -0.03 0.03 7.22zm-0.05 -14.44l-7.22 0.03 -0.03 -7.22 7.22 -0.03 0.03 7.22zm-0.05 -14.44l-7.22 0.03 -0.03 -7.22 7.22 -0.03 0.03 7.22zm-0.05 -14.44l-7.22 0.03 -0.03 -7.22 7.22 -0.03 0.03 7.22zm-0.05 -14.44l-7.22 0.03 -0.03 -7.22 7.22 -0.03 0.03 7.22zm-0.05 -14.44l-7.22 0.03 -0.03 -7.22 7.22 -0.03 0.03 7.22zm-0.05 -14.44l-7.22 0.03 -0.03 -7.22 7.22 -0.03 0.03 7.22zm-0.05 -14.44l-7.22 0.03 -0.03 -7.22 7.22 -0.03 0.03 7.22zm-0.05 -14.44l-7.22 0.03 -0.03 -7.22 7.22 -0.03 0.03 7.22zm-0.05 -14.44l-7.22 0.03 -0.03 -7.22 7.22 -0.03 0.03 7.22zm-0.05 -14.44l-7.22 0.03 -0.03 -7.22 7.22 -0.03 0.03 7.22zm-0.05 -14.44l-7.22 0.03 -0.03 -7.22 7.22 -0.03 0.03 7.22z"/>
   <path class="fil9" d="M350.5 130.1c-4.69,-1.64 -7.17,-6.77 -5.54,-11.46 1.64,-4.69 6.77,-7.17 11.46,-5.54l36.16 12.61c4.69,1.64 7.17,6.77 5.54,11.46 -1.64,4.69 -6.77,7.17 -11.46,5.54l-36.16 -12.61zm90.95 180.99l0 -0.01 0 -0.01 0 -0.05 0 -0 0 -0.01 0 -0.01 0 -0.01 0 -0.01 0 -0 0 -0.01 0 -0.01 0 -0.01 0 -0.01 0 -0.01 0 -0.01 0 -0.01 0 -0.01 0 -0.01 0 -0.01 0 -0.01 0 -0.01 0 -0 0 -0.01 0 -0.01 0 -0.01 0 -0.01 0 -0 0 -0.01 0 -0.01 0 -0.01 0 -0.01 0 -0 0 -0.01 0 -0.01 0 -0.01 0 -0.01 0 -0 0 -0.01 0 -0.01 0 -0.01 0 -0.01 0 -0 0 -0.01 0 -0.01 0 -0.01 0 -0.01 0 -0.01 0 -0.01 0 -0.01 0 -0.01 0 -0 0 -0.01 0 -0.01 0 -0.01 0 -0.01 0 -0 0 -0.01 0 -0.01 0 -0.01 0 -0.01 0 -0 0 -0.01 0 -0.01 0 -0.01 0 -0.01 0 0 0 -0.01 0.01 -0.03 0.01 -0.01 0.03 -0.07 0.01 -0.02 0.01 -0.02 0.01 -0.02 0.01 -0.02 0.03 -0.06 0.01 -0.02 0.01 -0.02 0.01 -0.02 0.01 -0.02 0.01 -0.02 0.01 -0.02 0.01 -0.02 0.01 -0.02 0.03 -0.04 0.01 -0.02 0.01 -0.02 0.01 -0.02 0.01 -0.02 0.01 -0.02 0.01 -0.02 0.02 -0.02 0.01 -0.01 0.02 -0.02 0.01 -0.01 0.02 -0.02 0.01 -0.01 0.02 -0.02 0.01 -0.01 0.02 -0.02 0.01 -0.01 0.03 -0.02 0.01 -0.01 0.03 -0.03 0 -0 0.03 -0.03 0 -0 0.07 -0.05 0 -0 0.03 -0.02 0 -0 0.03 -0.02 0 -0 0.03 -0.02 0.01 -0 0.03 -0.02 0.01 -0 0.03 -0.02 0.01 -0.01 0.03 -0.02 0.01 -0.01 0.03 -0.01 0.01 -0.01 0.03 -0.01 0.08 -0.04 0.01 -0.01 0.03 -0.01 0.01 -0.01 0.03 -0.01 0.01 -0.01 0.03 -0.01 0.01 -0.01 0.03 -0.01 0.01 -0 0.03 -0.01 0.01 -0 0.03 -0.01 0.01 -0 0.03 -0.01 0.02 -0 0.03 -0.01 0.01 -0 0.03 -0.01 0.01 -0 0 -0 0.08 -0.01 0.03 -0 0.01 -0 0.03 -0 0.01 -0 0.03 -0 0.01 0 0.03 -0 0.01 0 0.03 -0 0.01 0 0.04 0 0.03 0 0.01 0 0.03 0 0.01 0 0.04 0 0.01 0 0.04 0 0.01 0 0.04 0 0.01 0 0.04 0.01 0 0 0.04 0.01 0 0 0.04 0.01 0.04 0.01 0 0 0.04 0.01 0 0 0.04 0.01 0.01 0 0.04 0.01 0.01 0 0.03 0.01 0.01 0 0.02 0.01 144.97 50.56 -0 0 0.03 0.01 0.01 0 0.03 0.01 0 0 0.03 0.01 0.01 0 0.02 0.01 0.02 0.01 0.01 0.01 0.03 0.01 0 0 0.03 0.01 0 0 0.03 0.01 0.01 0.01 0.02 0.01 0.02 0.01 0.01 0.01 0.03 0.02 0 0 0.03 0.02 0.01 0 0.02 0.01 0.01 0.01 0.01 0.01 0.02 0.01 0.01 0.01 0.03 0.02 0 0 0.03 0.02 0.01 0.01 0.02 0.02 0.01 0.01 0.01 0.01 0.02 0.02 0.01 0.01 0.03 0.02 0 0 0.02 0.02 0.01 0.01 0.02 0.02 0.01 0.01 0.01 0.01 0.02 0.02 0 0 0.02 0.02 0 0 0.02 0.02 0.01 0.01 0.01 0.02 0.01 0.02 0.01 0.01 0.02 0.02 0 0 0.02 0.03 0 0 0.02 0.02 0.01 0.01 0.01 0.02 0.01 0.02 0.01 0.01 0.02 0.03 0 0 0.02 0.03 0 0.01 0.01 0.02 0.01 0.01 0.01 0.02 0.01 0.02 0.01 0.01 0.02 0.03 0.01 0.03 0 0.01 0.01 0.02 0.01 0.02 0.01 0.01 0.01 0.03 0 0.01 0.01 0.03 0 0 0.01 0.03 0 0.01 0.01 0.02 0.01 0.02 0.01 0.01 0.01 0.03 0 0.01 0.01 0.03 0 0 0.01 0.03 0 0.01 0.01 0.02 0.01 0.02 0 0.01 0.01 0.03 0 0 0.01 0.03 0 0.01 0 0.03 0 0.01 0 0.02 0 0.02 0 0.01 0 0.03 0 0 0 0.04 0 0.01 0 0.03 0 0.02 0 0.02 0 0.03 0 0.01 0 0.04 -0.12 91.35 0 0 0 0.01 0 0.01 0 0 0 0.03 0 0.01 0 0.01 0 0 0 0.01 0 0.01 0 0 0 0.01 -0 0.03 0 0.01 0 0.01 -0 0 0 0.01 0 0.01 -0 0 0 0.01 -0 0.01 0 0 0 0.01 -0 0.01 -0 0 0 0.01 -0 0.01 -0 0.01 0 0.01 -0 0.01 -0 0.01 0 0 -0 0.01 -0 0.01 0 0 -0 0.01 -0 0.01 0 0 -0 0.01 -0 0.01 0 0 -0 0.01 -0 0.01 -0 0.01 -0 0.01 0 0 -0 0.01 -0 0.01 0 0 -0 0.01 -0 0.01 -0 0 -0 0.01 -0 0.01 -0 0.01 0 0 -0 0.01 -0 0.01 -0 0 -0 0.01 -0 0.01 -0 0 0 0 -0 0.01 -0 0.01 -0 0.01 -0 0.01 -0 0.01 -0 0.01 -0 0 -0 0.01 -0 0.01 -0 0 -0 0.01 -0 0.01 -0 0 -0 0.01 -0 0.01 -0 0 -0 0.01 -0 0.01 -0 0 -0 0.01 -0 0.01 -0 0 -0 0.01 -0 0.01 -0 0 -0.01 0.02 -0.01 0.02 -0 0 -0.03 0.08 -0 0 -0.01 0.02 -0.01 0.02 -0 0 -0.01 0.02 -0.02 0.04 -0.01 0.02 -0 0 -0.01 0.02 -0.01 0.02 0 0 -0.01 0.02 -0.01 0.02 -0 0 -0.01 0.02 -0.01 0.02 -0 0 -0.01 0.02 -0.01 0.01 -0 0.01 -0.02 0.03 -0 0.01 -0.01 0.02 -0.01 0.01 -0.01 0.01 -0.01 0.02 -0.01 0.01 -0.01 0.01 -0.01 0.02 -0 0 -0.01 0.01 -0.01 0.02 -0 0 -0.01 0.02 -0.01 0.02 -0 0 -0.02 0.02 -0.01 0.01 -0 0.01 -0.02 0.02 -0.01 0.01 -0.02 0.02 -0.01 0.01 -0.03 0.02 -0.01 0.01 -0.03 0.03 -0 0 -0.03 0.03 -0 0 -0.07 0.05 -0 0 -0.03 0.02 -0 0 -0.03 0.02 -0 0 -0.03 0.02 -0.01 0 -0.03 0.02 -0.01 0 -0.03 0.02 -0.01 0.01 -0.03 0.02 -0.01 0.01 -0.03 0.01 -0.01 0.01 -0.03 0.01 -0.08 0.04 -0.01 0.01 -0.03 0.01 -0.01 0.01 -0.03 0.01 -0.01 0.01 -0.03 0.01 -0.01 0.01 -0.03 0.01 -0.01 0 -0.03 0.01 -0.01 0 -0.03 0.01 -0.01 0 -0.03 0.01 -0.02 0 -0.03 0.01 -0.01 0 -0.03 0.01 -0.01 0 -0 0 -0.08 0.01 -0.03 0 -0.01 0 -0.03 0 -0.01 0 -0.03 0 -0.01 0 -0.03 0 -0.01 0 -0.03 0 -0.01 0 -0.04 0 -0.03 0 -0.01 -0 -0.03 -0 -0.01 -0 -0.04 -0 -0.01 -0 -0.04 -0 -0.01 -0 -0.04 -0 -0.01 -0 -0.04 -0.01 -0 0 -0.04 -0.01 -0 0 -0.04 -0.01 -0.04 -0.01 -0 0 -0.04 -0.01 -0 -0 -0.04 -0.01 -0.01 -0 -0.04 -0.01 -0.01 -0 -0.03 -0.01 -0.01 -0 -0.02 -0.01 -144.34 -50.33c-0.57,-0.17 -1.04,-0.62 -1.21,-1.24 -0.06,-0.2 -0.08,-0.4 -0.06,-0.59l-0.45 -91.42 -0 -0.05zm8.81 4.3l66.08 64.77 65.93 -18.73 -132.01 -46.04zm130.84 133.29l-65.79 -64.49 -65.64 18.65 131.44 45.84zm-135.62 -48.39l66.87 -19 -67.28 -65.95 0.41 84.95zm73.82 -17.23l67.02 65.69 0.04 -26.57 0.08 -58.2 -67.14 19.07zm-108.01 41.5c0,1.99 -1.62,3.61 -3.61,3.61 -1.99,0 -3.61,-1.62 -3.61,-3.61l0 -171.06c0,-1.99 1.62,-3.61 3.61,-3.61 0.52,0 1.02,0.11 1.47,0.31l216.39 75.46c1.48,0.52 2.42,1.91 2.42,3.4l0.01 0 0 170.45c0,1.99 -1.62,3.61 -3.61,3.61 -1.99,0 -3.61,-1.62 -3.61,-3.61l0 -167.9 -209.45 -73.04 0 165.99zm29.26 -197.11c-3.75,-1.31 -5.74,-5.41 -4.43,-9.17 1.31,-3.75 5.41,-5.74 9.17,-4.43l73.09 25.49c3.75,1.31 5.74,5.41 4.43,9.17 -1.31,3.75 -5.41,5.74 -9.17,4.43l-73.09 -25.49zm109.11 38.05c-3.75,-1.31 -5.74,-5.41 -4.43,-9.17 1.31,-3.75 5.41,-5.74 9.17,-4.43l36.16 12.61c3.75,1.31 5.74,5.41 4.43,9.17 -1.31,3.75 -5.41,5.74 -9.17,4.43l-36.16 -12.61zm-241.01 -140.62l444.72 155.09 -2.37 6.8 -444.72 -155.09 2.37 -6.8zm368.33 114.08c-2.35,-0.82 -3.59,-3.38 -2.77,-5.73 0.82,-2.35 3.38,-3.59 5.73,-2.77l36.16 12.61c2.35,0.82 3.59,3.38 2.77,5.73 -0.82,2.35 -3.38,3.59 -5.73,2.77l-36.16 -12.61zm-108.33 -37.54c-2.35,-0.82 -3.59,-3.38 -2.77,-5.73 0.82,-2.35 3.38,-3.59 5.73,-2.77l72.32 25.22c2.35,0.82 3.59,3.38 2.77,5.73 -0.82,2.35 -3.38,3.59 -5.73,2.77l-72.32 -25.22zm-72.32 -25.22c-2.35,-0.82 -3.59,-3.38 -2.77,-5.73 0.82,-2.35 3.38,-3.59 5.73,-2.77l36.16 12.61c2.35,0.82 3.59,3.38 2.77,5.73 -0.82,2.35 -3.38,3.59 -5.73,2.77l-36.16 -12.61z"/>
   <g>
    <path class="fil10" d="M347.59 25.07l367.45 128.14c11.55,4.03 22,12.91 29.52,23.97 7.49,11.01 12.14,24.26 12.14,37.08l0 287.36c0,4.08 -0.47,7.91 -1.36,11.44l18.53 -12.48c2.45,-2.32 4.44,-5.33 5.82,-8.92l0.01 0c1.41,-3.67 2.18,-7.97 2.18,-12.82l0 -287.36c0,-11.01 -4.04,-22.46 -10.56,-32.04 -6.48,-9.53 -15.35,-17.14 -25.05,-20.52l-367.45 -128.14c-3.47,-1.21 -6.79,-1.79 -9.87,-1.79 -2.96,-0 -5.75,0.52 -8.29,1.53l-19.67 12.81c2.15,0.38 4.35,0.96 6.59,1.74zm396.15 506.65c-0.23,0.18 -0.46,0.35 -0.69,0.52 -5.08,3.74 -11.26,5.79 -18.1,5.79 -4.07,0 -8.4,-0.74 -12.88,-2.3l-367.45 -128.14c-11.55,-4.03 -22,-12.91 -29.52,-23.97 -7.49,-11.01 -12.14,-24.26 -12.14,-37.08l0 -287.36c0,-5.45 0.85,-10.45 2.4,-14.91 2.32,-6.65 6.22,-12 11.26,-15.72 1.04,-0.76 2.12,-1.46 3.25,-2.08l36.29 -23.74 0.36 -0.24 0.36 -0.15c3.68,-1.54 7.75,-2.35 12.08,-2.34 4.1,0.01 8.41,0.74 12.84,2.29l367.45 128.14c11.55,4.03 22,12.91 29.52,23.97 7.49,11.01 12.14,24.26 12.14,37.08l0 287.36c0,5.91 -1,11.31 -2.82,16.05l0 0.02c-1.93,5.01 -4.8,9.25 -8.4,12.55l-0.27 0.25 -0.25 0.17 -35.42 23.84zm-423.88 -505.24l0 -0 -0 0zm-7.87 56.12l435.69 151.94 0 -20.27c0,-11.01 -4.04,-22.46 -10.56,-32.04 -6.48,-9.53 -15.35,-17.14 -25.05,-20.52l-367.45 -128.14c-3.45,-1.2 -6.78,-1.77 -9.91,-1.77 -4.88,0 -9.24,1.42 -12.77,4.03 -3.58,2.64 -6.38,6.52 -8.08,11.41 -1.21,3.47 -1.87,7.48 -1.87,11.94l0 23.42zm435.69 155.75l-435.69 -151.94 0 260.12c0,11.01 4.04,22.46 10.56,32.04 6.48,9.53 15.35,17.14 25.05,20.51l367.45 128.14c3.45,1.2 6.78,1.77 9.91,1.77 4.88,0 9.24,-1.42 12.77,-4.03 3.58,-2.64 6.38,-6.52 8.08,-11.41 1.21,-3.47 1.87,-7.48 1.87,-11.95l0 -263.27z"/>
   </g>
   <path class="fil0" d="M77.35 201.41l367.45 128.14c21.25,7.41 38.63,32.97 38.63,56.8l0 287.36c0,10.98 -3.69,19.75 -9.75,25.3l-33.46 22.53 -227.29 -273.98 -187.77 -226.34 30.47 -19.84c6.2,-2.59 13.68,-2.77 21.71,0.03z"/>
   <rect class="fil1" transform="matrix(0.985195 0.343565 -0 1.26307 4.50509 210.714)" width="451.4" height="296.12" rx="34.31" ry="34.31"/>
   <circle class="fil2" transform="matrix(0.501251 0.169619 -0 0.653817 36.4621 261.073)" r="20.31"/>
   <circle class="fil3" transform="matrix(0.501251 0.169619 -0 0.653817 64.7572 270.324)" r="20.31"/>
   <circle class="fil4" transform="matrix(0.501251 0.169619 -0 0.653817 93.0523 279.575)" r="20.31"/>
   <polygon class="fil11" points="4.51,322.8 449.22,481.71 449.22,696.49 444.81,715 429.8,727.27 410.59,726.34 62.8,605.06 26.09,587.78 7.32,558.58 4.51,512 "/>
   <polygon class="fil1" points="322.83,695.74 322.83,525.29 106.15,449.73 106.15,620.79 "/>
   <path class="fil12" d="M319.21 690.54l0 -162.84 -209.45 -73.04 0 163.43 209.45 72.45zm7.22 -165.4l0 170.45 -0.02 0c0,0.39 -0.06,0.78 -0.2,1.17 -0.65,1.88 -2.69,2.87 -4.57,2.23l-216.35 -74.84c-1.58,-0.38 -2.76,-1.81 -2.76,-3.51l0 -171.06 0.01 0c0,-0.39 0.07,-0.79 0.2,-1.18 0.65,-1.88 2.71,-2.87 4.58,-2.21l216.39 75.46c1.55,0.4 2.7,1.82 2.7,3.5z"/>
   <polygon class="fil1" points="449.22,477.88 4.51,322.8 4.51,277.8 449.22,432.88 "/>
   <path class="fil9" d="M139.03 423.74c-3.75,-1.31 -5.74,-5.41 -4.43,-9.17 1.31,-3.75 5.41,-5.74 9.17,-4.43l73.09 25.49c3.75,1.31 5.74,5.41 4.43,9.17 -1.31,3.75 -5.41,5.74 -9.17,4.43l-73.09 -25.49zm109.11 38.05c-3.75,-1.31 -5.74,-5.41 -4.43,-9.17 1.31,-3.75 5.41,-5.74 9.17,-4.43l36.16 12.61c3.75,1.31 5.74,5.41 4.43,9.17 -1.31,3.75 -5.41,5.74 -9.17,4.43l-36.16 -12.61z"/>
   <path class="fil10" d="M261.54 394.91c-2.35,-0.82 -3.59,-3.38 -2.77,-5.73 0.82,-2.35 3.38,-3.59 5.73,-2.77l72.32 25.22c2.35,0.82 3.59,3.38 2.77,5.73 -0.82,2.35 -3.38,3.59 -5.73,2.77l-72.32 -25.22zm-218.15 -71.31c-4.69,-1.64 -7.17,-6.77 -5.54,-11.46 1.64,-4.69 6.77,-7.17 11.46,-5.54l36.16 12.61c4.69,1.64 7.17,6.77 5.54,11.46 -1.64,4.69 -6.77,7.17 -11.46,5.54l-36.16 -12.61zm145.83 46.09c-2.35,-0.82 -3.59,-3.38 -2.77,-5.73 0.82,-2.35 3.38,-3.59 5.73,-2.77l36.16 12.61c2.35,0.82 3.59,3.38 2.77,5.73 -0.82,2.35 -3.38,3.59 -5.73,2.77l-36.16 -12.61zm180.65 62.76c-2.35,-0.82 -3.59,-3.38 -2.77,-5.73 0.82,-2.35 3.38,-3.59 5.73,-2.77l36.16 12.61c2.35,0.82 3.59,3.38 2.77,5.73 -0.82,2.35 -3.38,3.59 -5.73,2.77l-36.16 -12.61z"/>
   <path class="fil12" d="M3.29 326.2c-1.88,-0.67 -2.86,-2.74 -2.19,-4.61 0.67,-1.88 2.74,-2.86 4.61,-2.19l444.72 158.92c1.88,0.67 2.86,2.74 2.19,4.61 -0.67,1.88 -2.74,2.86 -4.61,2.19l-444.72 -158.92z"/>
   <polygon class="fil13" points="142.06,501.74 142.5,593.37 286.92,643.73 286.6,552.15 "/>
   <path class="fil10" d="M515.1 674.61c-1.05,0.66 -2.45,0.34 -3.11,-0.71 -0.66,-1.05 -0.34,-2.45 0.71,-3.11l3.82 -2.4c1.05,-0.66 2.45,-0.34 3.11,0.71 0.66,1.05 0.34,2.45 -0.71,3.11l-3.82 2.4zm-239.26 -618.59c1.05,-0.66 2.45,-0.34 3.11,0.71 0.66,1.05 0.34,2.45 -0.71,3.11l-3.82 2.4c-1.05,0.66 -2.45,0.34 -3.11,-0.71 -0.66,-1.05 -0.34,-2.45 0.71,-3.11l3.82 -2.4zm-15.29 9.61c1.05,-0.66 2.45,-0.34 3.11,0.71 0.66,1.05 0.34,2.45 -0.71,3.11l-3.82 2.4c-1.05,0.66 -2.45,0.34 -3.11,-0.71 -0.66,-1.05 -0.34,-2.45 0.71,-3.11l3.82 -2.4zm-15.29 9.61c1.05,-0.66 2.45,-0.34 3.11,0.71 0.66,1.05 0.34,2.45 -0.71,3.11l-3.82 2.4c-1.05,0.66 -2.45,0.34 -3.11,-0.71 -0.66,-1.05 -0.34,-2.45 0.71,-3.11l3.82 -2.4zm-15.29 9.61c1.05,-0.66 2.45,-0.34 3.11,0.71 0.66,1.05 0.34,2.45 -0.71,3.11l-3.82 2.4c-1.05,0.66 -2.45,0.34 -3.11,-0.71 -0.66,-1.05 -0.34,-2.45 0.71,-3.11l3.82 -2.4zm-15.29 9.61c1.05,-0.66 2.45,-0.34 3.11,0.71 0.66,1.05 0.34,2.45 -0.71,3.11l-3.82 2.4c-1.05,0.66 -2.45,0.34 -3.11,-0.71 -0.66,-1.05 -0.34,-2.45 0.71,-3.11l3.82 -2.4zm-15.29 9.61c1.05,-0.66 2.45,-0.34 3.11,0.71 0.66,1.05 0.34,2.45 -0.71,3.11l-3.82 2.4c-1.05,0.66 -2.45,0.34 -3.11,-0.71 -0.66,-1.05 -0.34,-2.45 0.71,-3.11l3.82 -2.4zm-15.29 9.61c1.05,-0.66 2.45,-0.34 3.11,0.71 0.66,1.05 0.34,2.45 -0.71,3.11l-3.82 2.4c-1.05,0.66 -2.45,0.34 -3.11,-0.71 -0.66,-1.05 -0.34,-2.45 0.71,-3.11l3.82 -2.4zm-15.29 9.61c1.05,-0.66 2.45,-0.34 3.11,0.71 0.66,1.05 0.34,2.45 -0.71,3.11l-3.82 2.4c-1.05,0.66 -2.45,0.34 -3.11,-0.71 -0.66,-1.05 -0.34,-2.45 0.71,-3.11l3.82 -2.4zm-15.29 9.61c1.05,-0.66 2.45,-0.34 3.11,0.71 0.66,1.05 0.34,2.45 -0.71,3.11l-3.82 2.4c-1.05,0.66 -2.45,0.34 -3.11,-0.71 -0.66,-1.05 -0.34,-2.45 0.71,-3.11l3.82 -2.4zm-15.29 9.61c1.05,-0.66 2.45,-0.34 3.11,0.71 0.66,1.05 0.34,2.45 -0.71,3.11l-3.82 2.4c-1.05,0.66 -2.45,0.34 -3.11,-0.71 -0.66,-1.05 -0.34,-2.45 0.71,-3.11l3.82 -2.4zm-15.29 9.61c1.05,-0.66 2.45,-0.34 3.11,0.71 0.66,1.05 0.34,2.45 -0.71,3.11l-3.82 2.4c-1.05,0.66 -2.45,0.34 -3.11,-0.71 -0.66,-1.05 -0.34,-2.45 0.71,-3.11l3.82 -2.4zm-15.29 9.61c1.05,-0.66 2.45,-0.34 3.11,0.71 0.66,1.05 0.34,2.45 -0.71,3.11l-3.82 2.4c-1.05,0.66 -2.45,0.34 -3.11,-0.71 -0.66,-1.05 -0.34,-2.45 0.71,-3.11l3.82 -2.4zm-15.29 9.61c1.05,-0.66 2.45,-0.34 3.11,0.71 0.66,1.05 0.34,2.45 -0.71,3.11l-3.82 2.4c-1.05,0.66 -2.45,0.34 -3.11,-0.71 -0.66,-1.05 -0.34,-2.45 0.71,-3.11l3.82 -2.4zm607.56 381.81c1.05,-0.66 2.45,-0.34 3.11,0.71 0.66,1.05 0.34,2.45 -0.71,3.11l-3.82 2.4c-1.05,0.66 -2.45,0.34 -3.11,-0.71 -0.66,-1.05 -0.34,-2.45 0.71,-3.11l3.82 -2.4zm-15.29 9.61c1.05,-0.66 2.45,-0.34 3.11,0.71 0.66,1.05 0.34,2.45 -0.71,3.11l-3.82 2.4c-1.05,0.66 -2.45,0.34 -3.11,-0.71 -0.66,-1.05 -0.34,-2.45 0.71,-3.11l3.82 -2.4zm-15.29 9.61c1.05,-0.66 2.45,-0.34 3.11,0.71 0.66,1.05 0.34,2.45 -0.71,3.11l-3.82 2.4c-1.05,0.66 -2.45,0.34 -3.11,-0.71 -0.66,-1.05 -0.34,-2.45 0.71,-3.11l3.82 -2.4zm-15.29 9.61c1.05,-0.66 2.45,-0.34 3.11,0.71 0.66,1.05 0.34,2.45 -0.71,3.11l-3.82 2.4c-1.05,0.66 -2.45,0.34 -3.11,-0.71 -0.66,-1.05 -0.34,-2.45 0.71,-3.11l3.82 -2.4zm-15.29 9.61c1.05,-0.66 2.45,-0.34 3.11,0.71 0.66,1.05 0.34,2.45 -0.71,3.11l-3.82 2.4c-1.05,0.66 -2.45,0.34 -3.11,-0.71 -0.66,-1.05 -0.34,-2.45 0.71,-3.11l3.82 -2.4zm-15.29 9.61c1.05,-0.66 2.45,-0.34 3.11,0.71 0.66,1.05 0.34,2.45 -0.71,3.11l-3.82 2.4c-1.05,0.66 -2.45,0.34 -3.11,-0.71 -0.66,-1.05 -0.34,-2.45 0.71,-3.11l3.82 -2.4zm-15.29 9.61c1.05,-0.66 2.45,-0.34 3.11,0.71 0.66,1.05 0.34,2.45 -0.71,3.11l-3.82 2.4c-1.05,0.66 -2.45,0.34 -3.11,-0.71 -0.66,-1.05 -0.34,-2.45 0.71,-3.11l3.82 -2.4zm-15.29 9.61c1.05,-0.66 2.45,-0.34 3.11,0.71 0.66,1.05 0.34,2.45 -0.71,3.11l-3.82 2.4c-1.05,0.66 -2.45,0.34 -3.11,-0.71 -0.66,-1.05 -0.34,-2.45 0.71,-3.11l3.82 -2.4zm-15.29 9.61c1.05,-0.66 2.45,-0.34 3.11,0.71 0.66,1.05 0.34,2.45 -0.71,3.11l-3.82 2.4c-1.05,0.66 -2.45,0.34 -3.11,-0.71 -0.66,-1.05 -0.34,-2.45 0.71,-3.11l3.82 -2.4zm-15.29 9.61c1.05,-0.66 2.45,-0.34 3.11,0.71 0.66,1.05 0.34,2.45 -0.71,3.11l-3.82 2.4c-1.05,0.66 -2.45,0.34 -3.11,-0.71 -0.66,-1.05 -0.34,-2.45 0.71,-3.11l3.82 -2.4zm-15.29 9.61c1.05,-0.66 2.45,-0.34 3.11,0.71 0.66,1.05 0.34,2.45 -0.71,3.11l-3.82 2.4c-1.05,0.66 -2.45,0.34 -3.11,-0.71 -0.66,-1.05 -0.34,-2.45 0.71,-3.11l3.82 -2.4zm-15.29 9.61c1.05,-0.66 2.45,-0.34 3.11,0.71 0.66,1.05 0.34,2.45 -0.71,3.11l-3.82 2.4c-1.05,0.66 -2.45,0.34 -3.11,-0.71 -0.66,-1.05 -0.34,-2.45 0.71,-3.11l3.82 -2.4z"/>
   <g>
    <path class="fil10" d="M44.63 220.07l367.45 128.14c11.55,4.03 22,12.91 29.52,23.97 7.49,11.01 12.14,24.26 12.14,37.08l0 287.36c0,4.08 -0.47,7.91 -1.36,11.44l18.53 -12.48c2.45,-2.32 4.44,-5.33 5.82,-8.92l0.01 0c1.41,-3.67 2.18,-7.97 2.18,-12.82l0 -287.36c0,-11.01 -4.04,-22.46 -10.56,-32.04 -6.48,-9.53 -15.35,-17.14 -25.05,-20.52l-367.45 -128.14c-3.47,-1.21 -6.79,-1.79 -9.87,-1.79 -2.96,-0 -5.75,0.52 -8.29,1.53l-19.67 12.81c2.15,0.38 4.35,0.96 6.59,1.74zm396.15 506.65c-0.23,0.18 -0.46,0.35 -0.69,0.52 -5.08,3.74 -11.26,5.79 -18.1,5.79 -4.07,0 -8.4,-0.74 -12.88,-2.3l-367.45 -128.14c-11.55,-4.03 -22,-12.91 -29.52,-23.97 -7.49,-11.01 -12.14,-24.26 -12.14,-37.08l0 -287.36c0,-5.45 0.85,-10.45 2.4,-14.91 2.32,-6.65 6.22,-12 11.26,-15.72 1.04,-0.76 2.12,-1.46 3.25,-2.08l36.29 -23.74 0.36 -0.24 0.36 -0.15c3.68,-1.54 7.75,-2.35 12.08,-2.34 4.1,0.01 8.41,0.74 12.84,2.29l367.45 128.14c11.55,4.03 22,12.91 29.52,23.97 7.49,11.01 12.14,24.26 12.14,37.08l0 287.36c0,5.91 -1,11.31 -2.82,16.05l0 0.02c-1.93,5.01 -4.8,9.25 -8.4,12.55l-0.27 0.25 -0.25 0.17 -35.42 23.84zm-423.88 -505.24l0 -0 -0 0zm-7.87 56.12l435.69 151.94 0 -20.27c0,-11.01 -4.04,-22.46 -10.56,-32.04 -6.48,-9.53 -15.35,-17.14 -25.05,-20.52l-367.45 -128.14c-3.45,-1.2 -6.78,-1.77 -9.91,-1.77 -4.88,0 -9.24,1.42 -12.77,4.03 -3.58,2.64 -6.38,6.52 -8.08,11.41 -1.21,3.47 -1.87,7.48 -1.87,11.94l0 23.42zm435.69 155.75l-435.69 -151.94 0 260.12c0,11.01 4.04,22.46 10.56,32.04 6.48,9.53 15.35,17.14 25.05,20.51l367.45 128.14c3.45,1.2 6.78,1.77 9.91,1.77 4.88,0 9.24,-1.42 12.77,-4.03 3.58,-2.64 6.38,-6.52 8.08,-11.41 1.21,-3.47 1.87,-7.48 1.87,-11.95l0 -263.27z"/>
   </g>
  </g>
 </g>
</svg>
