<?xml version="1.0" encoding="UTF-8"?>
<!DOCTYPE svg PUBLIC "-//W3C//DTD SVG 1.1//EN" "http://www.w3.org/Graphics/SVG/1.1/DTD/svg11.dtd">
<!-- Creator: CorelDRAW 2020 (64-Bit Оценочная версия) -->
<svg xmlns="http://www.w3.org/2000/svg" xml:space="preserve" width="109.898mm" height="58.2774mm" version="1.1" style="shape-rendering:geometricPrecision; text-rendering:geometricPrecision; image-rendering:optimizeQuality; fill-rule:evenodd; clip-rule:evenodd"
viewBox="0 0 1772.54 939.96"
 xmlns:xlink="http://www.w3.org/1999/xlink"
 xmlns:xodm="http://www.corel.com/coreldraw/odm/2003">
 <defs>
  <style type="text/css">
   <![CDATA[
    .str0 {stroke:#D6D6D6;stroke-width:4.1;stroke-miterlimit:22.9256}
    .str1 {stroke:#368CA8;stroke-width:6.83;stroke-linecap:round;stroke-linejoin:round;stroke-miterlimit:22.9256}
    .str2 {stroke:#5CDB5C;stroke-width:6.83;stroke-linecap:round;stroke-linejoin:round;stroke-miterlimit:22.9256}
    .str4 {stroke:#D94E7F;stroke-width:6.83;stroke-linecap:round;stroke-linejoin:round;stroke-miterlimit:22.9256}
    .str5 {stroke:#D94E7F;stroke-width:6.83;stroke-linecap:round;stroke-linejoin:round;stroke-miterlimit:22.9256}
    .str6 {stroke:#D9D9D9;stroke-width:6.83;stroke-linecap:round;stroke-linejoin:round;stroke-miterlimit:22.9256}
    .str3 {stroke:#F7F7F7;stroke-width:6.83;stroke-linecap:round;stroke-linejoin:round;stroke-miterlimit:22.9256}
    .fil8 {fill:none}
    .fil3 {fill:#368CA8}
    .fil4 {fill:#3D3D3D}
    .fil7 {fill:#BFBFBF}
    .fil5 {fill:#D9D9D9}
    .fil10 {fill:#D9D9D9}
    .fil6 {fill:#E6E6E6}
    .fil2 {fill:#F7F7F7}
    .fil9 {fill:#F7F7F7}
    .fil0 {fill:url(#id13)}
    .fil1 {fill:url(#id14)}
   ]]>
  </style>
    <clipPath id="id0">
     <path d="M-0 0l837.88 97.25 0 842.71 -837.88 -97.25 0 -842.71z"/>
    </clipPath>
       <clipPath id="id1">
        <rect x="281.01" y="268.83" width="309.03" height="286.15"/>
       </clipPath>
       <clipPath id="id2">
        <path d="M281.01 554.98l309.03 0 0 -286.15 -309.03 0 0 286.15z"/>
       </clipPath>
       <clipPath id="id3">
        <rect x="281.01" y="268.83" width="309.03" height="286.15"/>
       </clipPath>
       <clipPath id="id4">
        <path d="M536.42 176.87l675.05 2.69 0 643.54 -675.05 -2.69 0 -643.54z"/>
       </clipPath>
       <clipPath id="id5">
        <path d="M1097.49 266.76l675.05 2.69 0 643.54 -675.05 -2.69 0 -643.54z"/>
       </clipPath>
        <mask id="id6">
  <linearGradient id="id7" gradientUnits="userSpaceOnUse" x1="692.91" y1="305.72" x2="751.62" y2="412.03">
   <stop offset="0" style="stop-opacity:0.6; stop-color:white"/>
   <stop offset="1" style="stop-opacity:0; stop-color:white"/>
  </linearGradient>
         <rect style="fill:url(#id7)" x="560.26" y="195.08" width="627.38" height="601.78"/>
        </mask>
       <clipPath id="id8">
        <path d="M1121.35 500l627.38 -172.29 0 214.49 -627.38 168.34 0 -210.54z"/>
       </clipPath>
       <clipPath id="id9">
        <path d="M1121.35 500l627.38 -172.29 0 214.49 -627.38 168.34 0 -210.54z"/>
       </clipPath>
       <clipPath id="id10">
        <path d="M1121.35 500l627.38 -172.29 0 214.49 -627.38 168.34 0 -210.54z"/>
       </clipPath>
      <mask id="id11">
  <linearGradient id="id12" gradientUnits="userSpaceOnUse" x1="1254.44" y1="400.38" x2="1312.27" y2="506.13">
   <stop offset="0" style="stop-opacity:0.6; stop-color:white"/>
   <stop offset="1" style="stop-opacity:0; stop-color:white"/>
  </linearGradient>
       <rect style="fill:url(#id12)" x="1121.35" y="291.04" width="627.38" height="595.95"/>
      </mask>
  <linearGradient id="id13" gradientUnits="userSpaceOnUse" x1="55.91" y1="269.95" x2="80.6" y2="232.92">
   <stop offset="0" style="stop-opacity:1; stop-color:#C7C7C7"/>
   <stop offset="1" style="stop-opacity:1; stop-color:#E3E3E3"/>
  </linearGradient>
  <linearGradient id="id14" gradientUnits="userSpaceOnUse" x1="390.59" y1="718.26" x2="402.67" y2="758.1">
   <stop offset="0" style="stop-opacity:1; stop-color:#BFBFBF"/>
   <stop offset="1" style="stop-opacity:1; stop-color:#E0E0E0"/>
  </linearGradient>
 </defs>
 <g id="Слой_x0020_1">
  <metadata id="CorelCorpID_0Corel-Layer"/>
  <g id="_2394252454720">
   <g style="clip-path:url(#id0)">
    <image x="-0" y="0" width="837.88" height="939.96" xlink:href="group_Images\group_ImgID1.png"/>
   </g>
   <path class="fil0" d="M70.65 215.06l641.51 -176.17c6.78,-1.86 13.15,-1.57 18.58,0.48 10.46,3.94 53.39,20.08 51.23,50.58l-33.74 474.69c-1.51,21.27 -16.51,42.3 -36.06,48.68l-607.77 198.35c-25.3,8.25 -54.56,-21.79 -61.19,-28.34 -5.36,-5.3 -8.61,-13.17 -8.61,-22.71l0 -496.87c0,-21.33 16.23,-43.24 36.06,-48.68z"/>
   <g>
    <g>
     <path class="fil1" d="M391.43 680.29c-14.65,19.87 -38.7,24.63 -50.22,36.29 -14.22,14.4 -15.75,30.99 -19.08,40.4 -1.93,5.45 -0.34,13.91 3.17,19.89 3.34,5.69 9.45,12 18.88,19.6 39.98,32.23 37.68,28.77 116.18,7.66 20.69,-5.56 36.34,-10.66 48.31,-14.8 14.73,-5.09 23.57,-9 25.09,-13.68 1.93,-5.94 -8.12,-9.85 -26.22,-21.11 -36.9,-22.95 -37.34,-23.54 -40.66,-49.18 -0.29,-2.26 -55.23,-27.6 -75.47,-25.06z"/>
     <g>
      <rect class="fil2 str0" transform="matrix(0.532161 -0.146141 -0 1.28244 68.3354 247.144)" width="1341.01" height="447.91" rx="30.24" ry="30.24"/>
      <g>
       <path class="fil3" d="M118.49 258.41l613.33 -168.43c16.21,-4.45 29.47,6.17 29.47,23.6l0 406.09c0,17.43 -13.26,35.34 -29.47,39.79l-613.33 168.43c-16.21,4.45 -29.47,-6.17 -29.47,-23.6l0 -406.09c0,-17.43 13.26,-35.34 29.47,-39.79z"/>
       <path id="1" class="fil4" d="M118.49 258.41l613.33 -168.43c16.21,-4.45 29.47,6.17 29.47,23.6l0 406.09c0,17.43 -13.26,35.34 -29.47,39.79l-613.33 168.43c-16.21,4.45 -29.47,-6.17 -29.47,-23.6l0 -406.09c0,-17.43 13.26,-35.34 29.47,-39.79zm615.49 -140.82l-608.34 167.06c-2,0.55 -4.19,2.42 -6.09,5 -1.98,2.68 -3.22,5.75 -3.22,8.55l0 402.07 608.34 -167.06c2,-0.55 4.19,-2.42 6.09,-5 1.98,-2.68 3.22,-5.74 3.22,-8.55l0 -402.07z"/>
      </g>
      <g style="clip-path:url(#id1)">
      </g>
      <g style="clip-path:url(#id2)">
       <image x="281.01" y="268.83" width="309.03" height="286.16" xlink:href="group_Images\group_ImgID2.png"/>
      </g>
      <g style="clip-path:url(#id3)">
      </g>
      <circle class="fil5" transform="matrix(0.781341 -0.275347 0.120631 0.821761 698.795 609.242)" r="14.34"/>
      <g style="clip-path:url(#id4)">
       <image x="536.42" y="176.87" width="675.05" height="646.23" xlink:href="group_Images\group_ImgID3.png"/>
      </g>
      <path class="fil4" d="M1186.49 201.34l-613.33 168.43c-3.09,0.85 -6.2,3.39 -8.72,6.79 -2.58,3.49 -4.19,7.58 -4.19,11.44l0 406.09c0,1.05 0.06,1.77 0.16,2.16 0.4,-0.02 0.73,-0.06 0.99,-0.13l613.33 -168.43c3.09,-0.85 6.2,-3.39 8.72,-6.79 2.58,-3.49 4.19,-7.58 4.19,-11.44l0 -406.09c0,-1.05 -0.06,-1.77 -0.16,-2.17 -0.4,0.02 -0.73,0.06 -0.99,0.13zm1 -0.5c-0.12,-0.09 -0.07,-0.05 0.02,0.03 0,-0.01 -0.01,-0.02 -0.02,-0.03zm-627.06 595.77c0.12,0.09 0.07,0.05 -0.02,-0.03l0.02 0.03z"/>
      <g style="clip-path:url(#id5)">
       <image x="1097.49" y="266.76" width="675.05" height="646.23" xlink:href="group_Images\group_ImgID4.png"/>
      </g>
      <g>
       <path class="fil6" d="M1747.58 291.27l-613.33 168.43c-3.09,0.85 -6.2,3.39 -8.72,6.79 -2.58,3.49 -4.19,7.58 -4.19,11.44l0 406.09c0,1.05 0.06,1.77 0.16,2.16 0.4,-0.01 0.73,-0.06 0.99,-0.13l613.33 -168.43c3.09,-0.85 6.2,-3.39 8.72,-6.78 2.58,-3.49 4.19,-7.58 4.19,-11.44l0 -406.09c0,-1.05 -0.06,-1.77 -0.16,-2.17 -0.4,0.02 -0.73,0.06 -0.99,0.13zm1 -0.5c-0.12,-0.09 -0.07,-0.05 0.02,0.03 -0,-0.01 -0.01,-0.02 -0.02,-0.03zm-627.06 595.77c0.12,0.09 0.07,0.05 -0.02,-0.03l0.02 0.03z"/>
       <path id="1" class="fil7" d="M1747.36 292.73l-612.76 168.27c-1.32,0.36 -2.69,1.11 -4.01,2.14l-0 -0c-1.41,1.1 -2.76,2.52 -3.97,4.15 -1.24,1.67 -2.24,3.49 -2.91,5.35l0 0c-0.64,1.75 -1,3.55 -1,5.28l0 406.09c0,0.2 0,0.39 0.01,0.56l612.75 -168.27c1.32,-0.36 2.68,-1.1 4,-2.13l0 0c1.41,-1.1 2.76,-2.52 3.97,-4.15 1.24,-1.67 2.24,-3.49 2.92,-5.35l0 -0c0.64,-1.75 1,-3.54 1,-5.27l0 -406.09c0,-0.2 -0,-0.39 -0.01,-0.57zm0.22 -1.47l-613.33 168.43c-3.09,0.85 -6.2,3.39 -8.72,6.79 -2.58,3.49 -4.19,7.58 -4.19,11.44l0 406.09c0,1.05 0.06,1.77 0.16,2.16 0.4,-0.01 0.73,-0.06 0.99,-0.13l613.33 -168.43c3.09,-0.85 6.2,-3.39 8.72,-6.78 2.58,-3.49 4.19,-7.58 4.19,-11.44l0 -406.09c0,-1.05 -0.06,-1.77 -0.16,-2.17 -0.4,0.02 -0.73,0.06 -0.99,0.13zm1 -0.5c-0.12,-0.09 -0.07,-0.05 0.02,0.03 -0,-0.01 -0.01,-0.02 -0.02,-0.03zm-627.06 595.77c0.12,0.09 0.07,0.05 -0.02,-0.03l0.02 0.03z"/>
      </g>
      <line class="fil8 str1" x1="592.33" y1="398.22" x2="750.28" y2= "354.84" />
      <line class="fil8 str2" x1="765.7" y1="350.61" x2="837.88" y2= "330.79" />
      <line class="fil8 str3" x1="853.05" y1="326.62" x2="965.42" y2= "295.76" />
      <line class="fil8 str3" x1="625.03" y1="411.91" x2="657.72" y2= "402.93" />
      <line class="fil8 str1" x1="679.29" y1="397" x2="780.3" y2= "369.26" />
      <line class="fil8 str3" x1="800.74" y1="363.65" x2="935.59" y2= "326.62" />
      <line class="fil8 str4" x1="625.03" y1="434.35" x2="701.73" y2= "413.29" />
      <g>
       <path class="fil9" style="mask:url(#id6)" d="M1167.98 207.98l-594.46 163.25c-1.33,0.37 -2.69,1.11 -4.01,2.13l0 0.01c-1.42,1.1 -2.77,2.53 -3.98,4.15 -1.23,1.66 -2.23,3.49 -2.92,5.35l-0 0c-0.64,1.75 -1,3.55 -1,5.28l0 406.09c0,0.2 0,0.39 0.01,0.57l612.75 -168.27c1.32,-0.36 2.68,-1.1 4,-2.13l0 0c1.41,-1.1 2.76,-2.52 3.97,-4.15 1.24,-1.67 2.24,-3.49 2.92,-5.35l0 -0c0.64,-1.75 1,-3.55 1,-5.27l0 -383.9c0,-17.16 -1.55,-21.73 -5.23,-21.73 -1.8,0 -4.26,0.9 -7.27,2 -1.71,0.63 -3.6,1.32 -5.75,1.98l-0.04 0.01zm-0.36 -1.31l-594.46 163.25c-3.09,0.85 -6.2,3.39 -8.72,6.79 -2.58,3.49 -4.19,7.58 -4.19,11.44l0 406.09c0,1.05 0.06,1.77 0.16,2.16 0.4,-0.02 0.73,-0.06 0.99,-0.13l613.33 -168.43c3.09,-0.85 6.2,-3.39 8.72,-6.79 2.58,-3.49 4.19,-7.58 4.19,-11.44l0 -383.9c0,-30.64 -5.5,-23.51 -20.02,-19.04zm-607.21 590.09c0.12,0.09 0.07,0.05 -0.02,-0.03l0.02 0.03z"/>
      </g>
      <line class="fil8 str1" x1="717.57" y1="408.94" x2="843.13" y2= "374.46" />
      <line class="fil8 str3" x1="865.77" y1="368.24" x2="965.42" y2= "340.87" />
      <line class="fil8 str3" x1="672.56" y1="443.7" x2="728.77" y2= "428.26" />
      <line class="fil8 str3" x1="746.62" y1="423.36" x2="797.87" y2= "409.28" />
      <line class="fil8 str3" x1="672" y1="466.51" x2="751.11" y2= "444.78" />
      <line class="fil8 str3" x1="774.68" y1="438.31" x2="820.68" y2= "425.68" />
      <line class="fil8 str3" x1="671.43" y1="489.11" x2="712.95" y2= "477.71" />
      <line class="fil8 str3" x1="729.79" y1="473.09" x2="781.97" y2= "458.76" />
      <line class="fil8 str5" x1="788.14" y1="479.33" x2="865.95" y2= "457.96" />
      <line class="fil8 str1" x1="625.03" y1="524.12" x2="768.35" y2= "484.77" />
      <line class="fil8 str2" x1="886.89" y1="452.21" x2="918.26" y2= "443.6" />
      <line class="fil8 str3" x1="935.75" y1="438.79" x2="975.54" y2= "427.87" />
      <line class="fil8 str3" x1="625.03" y1="546.57" x2="706.7" y2= "524.14" />
      <line class="fil8 str1" x1="729.76" y1="517.81" x2="761.29" y2= "509.15" />
      <line class="fil8 str3" x1="625.03" y1="569.01" x2="687.08" y2= "551.97" />
      <line class="fil8 str1" x1="711.83" y1="545.17" x2="750.36" y2= "534.6" />
      <line class="fil8 str2" x1="625.03" y1="591.46" x2="680.41" y2= "576.25" />
      <line class="fil8 str3" x1="698.37" y1="571.32" x2="761.29" y2= "554.04" />
      <line class="fil8 str3" x1="625.03" y1="613.9" x2="706.7" y2= "591.47" />
      <line class="fil8 str1" x1="729.76" y1="585.14" x2="813" y2= "562.28" />
      <line class="fil8 str3" x1="658.37" y1="627.19" x2="747.62" y2= "602.68" />
      <line class="fil8 str2" x1="767.04" y1="597.34" x2="796.64" y2= "589.21" />
      <line class="fil8 str1" x1="658.37" y1="649.81" x2="691.06" y2= "640.83" />
      <line class="fil8 str3" x1="706.22" y1="636.67" x2="745.32" y2= "625.93" />
      <line class="fil8 str3" x1="817.43" y1="583.51" x2="867.82" y2= "569.67" />
      <line class="fil8 str1" x1="592.33" y1="712.65" x2="750.28" y2= "669.28" />
      <line class="fil8 str5" x1="780.69" y1="660.93" x2="826.85" y2= "648.25" />
      <line class="fil8 str2" x1="852.63" y1="641.17" x2="958.71" y2= "612.04" />
      <line class="fil8 str1" x1="625.42" y1="726.01" x2="714.2" y2= "701.63" />
      <path class="fil4" d="M1121.49 886.51c0.12,0.09 0.07,0.05 -0.02,-0.03l0.02 0.03z"/>
      <path class="fil4" d="M1748.55 313.19c-0.12,-0.09 -0.07,-0.05 0.02,0.03 -0,-0.01 -0.01,-0.02 -0.02,-0.03z"/>
      <line class="fil8 str2" x1="737.57" y1="695.21" x2="776.22" y2= "684.6" />
      <line class="fil8 str3" x1="797.93" y1="678.63" x2="834.15" y2= "668.69" />
      <line class="fil8 str3" x1="625.42" y1="748.56" x2="670.37" y2= "736.22" />
      <line class="fil8 str1" x1="689.15" y1="731.06" x2="727.58" y2= "720.51" />
      <g style="clip-path:url(#id8)">
      </g>
      <g style="clip-path:url(#id9)">
       <image x="1004.29" y="73.47" width="894.38" height="1535.59" xlink:href="group_Images\group_ImgID5.png"/>
      </g>
      <g style="clip-path:url(#id10)">
      </g>
      <path class="fil4" d="M1747.58 291.27l-613.33 168.43c-3.09,0.85 -6.2,3.39 -8.72,6.79 -2.58,3.49 -4.19,7.58 -4.19,11.44l0 31.22 627.38 -172.29 0 -43.54c0,-1.05 -0.06,-1.77 -0.16,-2.17 -0.4,0.02 -0.73,0.06 -0.99,0.13zm1 -0.5c-0.12,-0.09 -0.07,-0.05 0.02,0.03 -0,-0.01 -0.01,-0.02 -0.02,-0.03z"/>
      <line class="fil8 str3" x1="1205.93" y1="462.98" x2="1261.74" y2= "448.36" />
      <line class="fil8 str3" x1="1555.58" y1="368.01" x2="1605.09" y2= "354.33" />
      <line class="fil8 str3" x1="1498.26" y1="383.85" x2="1528.79" y2= "375.42" />
      <line class="fil8 str3" x1="1472.9" y1="390.86" x2="1434.52" y2= "401.46" />
      <polygon class="fil9" points="1232.97,632.39 1643.66,519.6 1643.66,742.92 1232.97,855.7 "/>
      <polygon class="fil10" points="1271.84,649.81 1450.66,600.7 1450.66,773.52 1271.84,822.63 "/>
      <line class="fil8 str6" x1="1473.01" y1="611.65" x2="1570.9" y2= "586.01" />
      <line class="fil8 str6" x1="1473.01" y1="634.09" x2="1549.02" y2= "614.18" />
      <line class="fil8 str6" x1="1566.41" y1="609.63" x2="1607.97" y2= "598.74" />
      <line class="fil8 str6" x1="1473.01" y1="656.54" x2="1511.02" y2= "646.58" />
      <line class="fil8 str6" x1="1528.26" y1="642.06" x2="1594.47" y2= "624.72" />
      <line class="fil8 str6" x1="1473.01" y1="678.98" x2="1554.07" y2= "657.75" />
      <line class="fil8 str6" x1="1473.01" y1="723.87" x2="1531.63" y2= "708.51" />
      <line class="fil8 str6" x1="1473.01" y1="746.31" x2="1506.11" y2= "737.64" />
      <line class="fil8 str6" x1="1526.01" y1="732.43" x2="1577.64" y2= "718.9" />
     </g>
    </g>
    <g>
     <path class="fil9" style="mask:url(#id11)" d="M1747.36 293.1l-612.75 168.27c-1.33,0.37 -2.69,1.11 -4.01,2.13l0 0.01c-1.42,1.1 -2.77,2.53 -3.98,4.15 -1.24,1.67 -2.24,3.49 -2.91,5.35l0 0c-0.64,1.75 -1,3.55 -1,5.28l0 406.09c0,0.2 0,0.39 0.01,0.57l612.75 -168.27c1.32,-0.36 2.68,-1.1 4,-2.13 1.42,-1.1 2.77,-2.53 3.98,-4.15 1.24,-1.67 2.24,-3.49 2.92,-5.35l0 -0c0.64,-1.75 1,-3.55 1,-5.27l0 -406.09c0,-0.2 -0,-0.39 -0.01,-0.57zm0.22 -1.47l-613.33 168.43c-3.09,0.85 -6.2,3.39 -8.72,6.79 -2.58,3.49 -4.19,7.58 -4.19,11.44l0 406.09c0,1.05 0.06,1.77 0.16,2.16 0.4,-0.01 0.73,-0.06 0.99,-0.13l613.33 -168.43c3.09,-0.85 6.2,-3.39 8.72,-6.78 2.58,-3.49 4.19,-7.58 4.19,-11.44l0 -406.09c0,-1.05 -0.06,-1.77 -0.16,-2.17 -0.4,0.02 -0.73,0.06 -0.99,0.13zm1 -0.5c-0.12,-0.09 -0.07,-0.05 0.02,0.03 -0,-0.01 -0.01,-0.02 -0.02,-0.03zm-627.06 595.77c0.12,0.09 0.07,0.05 -0.02,-0.03l0.02 0.03z"/>
    </g>
   </g>
  </g>
 </g>
</svg>
