<?xml version="1.0" encoding="UTF-8"?>
<!DOCTYPE svg PUBLIC "-//W3C//DTD SVG 1.1//EN" "http://www.w3.org/Graphics/SVG/1.1/DTD/svg11.dtd">
<!-- Creator: CorelDRAW 2020 (64-Bit Оценочная версия) -->
<svg xmlns="http://www.w3.org/2000/svg" xml:space="preserve" width="6.2662mm" height="6.4766mm" version="1.1" style="shape-rendering:geometricPrecision; text-rendering:geometricPrecision; image-rendering:optimizeQuality; fill-rule:evenodd; clip-rule:evenodd"
viewBox="0 0 4.59 4.74"
 xmlns:xlink="http://www.w3.org/1999/xlink"
 xmlns:xodm="http://www.corel.com/coreldraw/odm/2003">
 <defs>
  <style type="text/css">
   <![CDATA[
    .fil0 {fill:#666666}
   ]]>
  </style>
 </defs>
 <g id="Слой_x0020_1">
  <metadata id="CorelCorpID_0Corel-Layer"/>
  <g id="_3066746747184">
   <path class="fil0" d="M0.51 1.54c0,-0.38 0.15,-0.65 0.4,-0.84 0.31,-0.23 0.71,-0.25 1.04,-0.07 0.11,0.06 0.07,0.02 0.21,0.01 0.18,-0.01 0.32,-0.01 0.5,0.03 0.21,0.04 0.41,0.13 0.59,0.25 1.03,0.75 0.69,1.75 0.73,1.88 0.06,0.15 0.08,0.23 0.08,0.43 0,0.7 -0.74,1.2 -1.36,0.91 -0.15,-0.07 -0.14,-0.01 -0.38,-0.01 -0.66,0 -1.14,-0.31 -1.47,-0.83 -0.11,-0.16 -0.19,-0.4 -0.22,-0.6 -0.03,-0.2 -0.04,-0.41 0,-0.62 0.01,-0.07 0.01,-0.04 -0.02,-0.1 -0.06,-0.11 -0.11,-0.29 -0.11,-0.45zm-0.51 -0.11c0,0.22 -0,0.35 0.07,0.56 0.01,0.03 0.02,0.05 0.03,0.08 0.03,0.07 -0,0.18 -0,0.31 0,0.84 0.4,1.42 0.87,1.8 0.41,0.33 0.96,0.51 1.51,0.46 0.09,-0.01 0.05,-0.02 0.13,0.01 0.04,0.02 0.08,0.03 0.13,0.04 0.44,0.11 0.99,0.01 1.32,-0.31 0.16,-0.15 0.3,-0.29 0.39,-0.5 0.15,-0.33 0.19,-0.72 0.09,-1.08 -0.05,-0.18 -0.01,-0.14 -0.01,-0.35 0,-0.57 -0.11,-0.94 -0.4,-1.37 -0.09,-0.14 -0.13,-0.16 -0.19,-0.23 -0.02,-0.03 -0.04,-0.05 -0.07,-0.07 -0.84,-0.84 -1.66,-0.61 -1.79,-0.66 -0.05,-0.02 -0.1,-0.04 -0.15,-0.06 -0.34,-0.11 -0.77,-0.08 -1.08,0.08 -0.48,0.24 -0.86,0.75 -0.86,1.29z"/>
   <path class="fil0" d="M1.35 1.82c0,0.2 0.07,0.33 0.18,0.43 0.21,0.2 0.59,0.27 0.88,0.34 0.12,0.03 0.35,0.1 0.35,0.26l0 0.06c0,0.27 -0.51,0.36 -0.74,0.23 -0.09,-0.05 -0.11,-0.09 -0.15,-0.16l-0.1 -0.19c-0.13,-0.22 -0.47,-0.11 -0.47,0.1 0,0.24 0.17,0.44 0.32,0.54 0.33,0.24 1.02,0.25 1.38,0 0.28,-0.19 0.37,-0.51 0.27,-0.83 -0.1,-0.3 -0.48,-0.41 -0.76,-0.48 -0.05,-0.01 -0.08,-0.02 -0.12,-0.03 -0.18,-0.04 -0.51,-0.07 -0.51,-0.31 0,-0.04 0.03,-0.08 0.05,-0.11 0.14,-0.14 0.43,-0.15 0.58,-0.08 0.25,0.12 0.18,0.41 0.46,0.41 0.19,0 0.35,-0.25 0.13,-0.53 -0.05,-0.06 -0.12,-0.13 -0.2,-0.17 -0.6,-0.32 -1.55,-0.1 -1.55,0.52z"/>
  </g>
 </g>
</svg>
