<?xml version="1.0" encoding="UTF-8"?>
<!DOCTYPE svg PUBLIC "-//W3C//DTD SVG 1.1//EN" "http://www.w3.org/Graphics/SVG/1.1/DTD/svg11.dtd">
<!-- Creator: CorelDRAW 2020 (64-Bit Оценочная версия) -->
<svg xmlns="http://www.w3.org/2000/svg" xml:space="preserve" width="14.8429mm" height="9.1032mm" version="1.1" style="shape-rendering:geometricPrecision; text-rendering:geometricPrecision; image-rendering:optimizeQuality; fill-rule:evenodd; clip-rule:evenodd"
viewBox="0 0 33.33 20.44"
 xmlns:xlink="http://www.w3.org/1999/xlink"
 xmlns:xodm="http://www.corel.com/coreldraw/odm/2003">
 <defs>
  <style type="text/css">
   <![CDATA[
    .fil0 {fill:#3D3D3D}
    .fil1 {fill:red}
   ]]>
  </style>
 </defs>
 <g id="Слой_x0020_1">
  <metadata id="CorelCorpID_0Corel-Layer"/>
  <g id="_3105050237280">
   <path class="fil0" d="M-0 1.51c0,1.16 2.16,11.6 3.28,11.6 2.38,0 1.98,-3.67 3.04,-6.54l0.15 -0.35c0.02,-0.04 0.05,-0.12 0.08,-0.17 0.01,0.54 1.22,7.06 2.27,7.06 1.93,0 1.87,-1.93 2.62,-4.94 1.46,-5.82 2.34,-6.91 0.15,-6.91 -1.4,0 -1.64,4.45 -2.45,6.63 -0.01,0.04 -0.04,0.12 -0.08,0.18 -0.03,-0.35 -1.16,-6.81 -2.27,-6.81 -2.05,0 -1.58,0.84 -2.56,5 -0.23,0.96 -0.02,1.04 -0.72,1.55 -0.01,-0.33 -0.91,-6.56 -2.27,-6.56 -0.4,0 -0.96,0.13 -1.26,0.25z"/>
   <path class="fil0" d="M30.27 7.82l-0.76 0 0 -4.29c0.92,0.02 1.51,0.11 1.51,1.01l0 2.52c0,0.58 -0.18,0.76 -0.76,0.76zm-3.28 -5.55l0 9.84c0,1.13 2.52,1.13 2.52,0l0 -2.02c4.42,0 3.78,-2.61 3.78,-6.05 0,-3.04 -3.81,-2.52 -5.55,-2.52 -0.58,0 -0.76,0.18 -0.76,0.76z"/>
   <path class="fil0" d="M19.17 2.27l0 -0.76c-5.79,0 -5.8,0.01 -5.8,5.8 0,2.17 -0.37,3.88 0.8,5 1.16,1.11 2.87,0.8 5.01,0.8 0,-1.2 -0.17,-1.05 -0.25,-2.02 -3.67,0 -3.28,0.4 -3.28,-3.53 1.03,0 0.81,0.08 1.51,-0.25 -0.52,-0.98 -0.06,-0.76 -1.51,-0.76 0,-3.35 -0.32,-3.03 3.28,-3.03l0.25 -1.26z"/>
   <path class="fil0" d="M20.68 2.52c0.03,0.05 0.09,0.06 0.1,0.15 0.01,0.09 0.07,0.13 0.08,0.17 0.07,0.34 0.07,0.33 0.07,0.69 3.6,0 3.28,-0.32 3.28,3.03 -1.28,0 -1.41,-0.24 -1.51,1.01l1.51 0c0,3.93 0.39,3.53 -3.28,3.53 -0.08,0.97 -0.25,0.81 -0.25,2.02 5.95,0 5.8,-0.29 5.8,-5.8 0,-5.79 -0.01,-5.8 -5.8,-5.8l0 1.01z"/>
   <path class="fil0" d="M30.52 19.93l0 -2.77 1.51 0 0 2.52 -0.76 0c-0.29,0 -0.7,0.18 -0.76,0.25zm-1.01 0.5c3.14,-0.26 3.53,0.87 3.53,-2.52 0,-1.85 -1.31,-1.77 -2.52,-1.77 -0.03,-1.19 0.26,-0.99 -0.76,-1.26 -0.59,1.23 -0.25,3.87 -0.25,5.55z"/>
   <path class="fil1" d="M19.17 2.27c0,1.4 -0.46,3.56 -0.76,4.76l3.03 -0.03c-0.28,-0.5 -0.76,-3.54 -0.76,-4.48 -0.38,-0.59 -0.5,-1.81 -0.5,-2.52l-1.01 2.27z"/>
   <path class="fil0" d="M25.48 18.67l1.51 0 0 1.26c-0.31,-0.17 -0.27,-0.25 -0.76,-0.25l-0.76 0 0 -1.01zm-0.25 -0.76c0.21,-0.37 0.12,-0.27 0.25,-0.76l1.51 0 0 0.76 -1.77 0zm0 0c-1.47,1.39 -1.02,2.64 1.18,2.47 1.07,-0.09 0.38,-0.04 1.59,0.06l0 -3.53c-1.36,-0.91 -3.28,-1.59 -3.28,1.01l0.5 0z"/>
   <path class="fil0" d="M19.42 7.57l1.01 0c0,2.06 -0.18,2.35 -0.76,2.77 0,-1.4 -0.25,-1.5 -0.25,-2.77zm2.02 -0.57l-3.03 0.03 1.77 7.1c0,-0.87 1.03,-6.56 1.26,-7.12z"/>
   <path class="fil0" d="M19.93 20.43l2.77 0c0.96,0 0.09,0.08 0.76,-0.25 -0.45,-0.65 0.14,-0.5 -2.52,-0.5 0,-4.6 0.4,-4.68 -1.01,-4.79l0 5.55z"/>
  </g>
 </g>
</svg>
