<?xml version="1.0" encoding="UTF-8"?>
<!DOCTYPE svg PUBLIC "-//W3C//DTD SVG 1.1//EN" "http://www.w3.org/Graphics/SVG/1.1/DTD/svg11.dtd">
<!-- Creator: CorelDRAW 2020 (64-Bit Оценочная версия) -->
<svg xmlns="http://www.w3.org/2000/svg" xml:space="preserve" width="445.969mm" height="1004.67mm" version="1.1" style="shape-rendering:geometricPrecision; text-rendering:geometricPrecision; image-rendering:optimizeQuality; fill-rule:evenodd; clip-rule:evenodd"
viewBox="0 0 49722064941.8 112012525766.41"
 xmlns:xlink="http://www.w3.org/1999/xlink"
 xmlns:xodm="http://www.corel.com/coreldraw/odm/2003"
 enable-background="new 0 0 512 512">
 <defs>
  <style type="text/css">
   <![CDATA[
    .str0 {stroke:#3D3D3D;stroke-width:28307875.93;stroke-miterlimit:22.9256}
    .fil0 {fill:#3D3D3D}
   ]]>
  </style>
 </defs>
 <g id="Слой_x0020_1">
  <metadata id="CorelCorpID_0Corel-Layer"/>
  <g id="_3066715480144">
   <path class="fil0 str0" d="M49630886600.2 111536253279.65l-462124123.4 0c-42534283.84,0 -77018829.03,34484545.19 -77018829.03,77018829.03l0 308075316.12c0,42534283.84 34484545.19,77018829.03 77018829.03,77018829.03l462124123.4 0c42534283.84,0 77018829.03,-34484545.19 77018829.03,-77018829.03l0 -308075316.12c0,-42534283.84 -34484545.19,-77018829.03 -77018829.03,-77018829.03zm-126777809.05 205524767.56l163035080.62 -139722056.37c1126071.47,3612348.09 2252142.94,7224696.18 2252142.94,11216117.84l0 308075316.12c0,2675813.4 -1014579.25,5039448.57 -1538592.71,7559172.85l-163748630.86 -187128550.44zm126777809.05 -167015353.05c2553171.95,0 4816464.12,969982.36 7224696.18,1460548.15l-238292332.49 204253756.2 -238281183.27 -204253756.2c2408232.06,-490565.79 4671524.23,-1460548.15 7224696.18,-1460548.15l462124123.4 0zm-499106094.44 354110455.82c-535162.68,-2519724.29 -1527443.48,-4849911.79 -1527443.48,-7525725.19l0 -308075316.12c0,-3991421.65 1148369.92,-7603769.75 2274441.39,-11216117.84l162979334.5 139677459.48 -163726332.41 187139699.66zm36981971.03 30983689.33c-3891078.65,0 -7425382.18,-1126071.47 -10981984.16,-2218695.28l166981905.38 -190818943.09 62535989 53594312.56c3590049.64,3121782.3 8072037.09,4660375 12520576.87,4660375 4459689,0 8941676.44,-1538592.7 12531726.09,-4660375l62535989 -53594312.56 166981905.38 190818943.09c-3534303.53,1092623.8 -7068607.07,2218695.28 -10981984.16,2218695.28l-462124123.4 0z"/>
  </g>
 </g>
</svg>
