<?xml version="1.0" encoding="UTF-8"?>
<!DOCTYPE svg PUBLIC "-//W3C//DTD SVG 1.1//EN" "http://www.w3.org/Graphics/SVG/1.1/DTD/svg11.dtd">
<!-- Creator: CorelDRAW 2020 (64-Bit Оценочная версия) -->
<svg xmlns="http://www.w3.org/2000/svg" xml:space="preserve" width="5.7805mm" height="4.3988mm" version="1.1" style="shape-rendering:geometricPrecision; text-rendering:geometricPrecision; image-rendering:optimizeQuality; fill-rule:evenodd; clip-rule:evenodd"
viewBox="0 0 3.8 2.89"
 xmlns:xlink="http://www.w3.org/1999/xlink"
 xmlns:xodm="http://www.corel.com/coreldraw/odm/2003">
 <defs>
  <style type="text/css">
   <![CDATA[
    .str0 {stroke:#666666;stroke-width:0.17;stroke-miterlimit:22.9256}
    .fil0 {fill:#666666}
   ]]>
  </style>
 </defs>
 <g id="Слой_x0020_1">
  <metadata id="CorelCorpID_0Corel-Layer"/>
  <path class="fil0 str0" d="M3.26 0.08l-2.72 0c-0.25,0 -0.45,0.2 -0.45,0.45l0 1.81c0,0.25 0.2,0.45 0.45,0.45l2.72 0c0.25,0 0.45,-0.2 0.45,-0.45l0 -1.81c0,-0.25 -0.2,-0.45 -0.45,-0.45zm-0.75 1.21l0.96 -0.82c0.01,0.02 0.01,0.04 0.01,0.07l0 1.81c0,0.02 -0.01,0.03 -0.01,0.04l-0.96 -1.1zm0.75 -0.98c0.02,0 0.03,0.01 0.04,0.01l-1.4 1.2 -1.4 -1.2c0.01,-0 0.03,-0.01 0.04,-0.01l2.72 0zm-2.94 2.09c-0,-0.01 -0.01,-0.03 -0.01,-0.04l0 -1.81c0,-0.02 0.01,-0.04 0.01,-0.07l0.96 0.82 -0.96 1.1zm0.22 0.18c-0.02,0 -0.04,-0.01 -0.06,-0.01l0.98 -1.12 0.37 0.32c0.02,0.02 0.05,0.03 0.07,0.03 0.03,0 0.05,-0.01 0.07,-0.03l0.37 -0.32 0.98 1.12c-0.02,0.01 -0.04,0.01 -0.06,0.01l-2.72 0z"/>
 </g>
</svg>
