
<svg fill="#fff" version="1.1" id="Capa_1" xmlns="http://www.w3.org/2000/svg" xmlns:xlink="http://www.w3.org/1999/xlink" x="0px" y="0px"
	 viewBox="0 0 512.005 512.005" style="enable-background:new 0 0 512.005 512.005;" xml:space="preserve">
<g>
	<g>
		<path d="M508.885,312.472l-128-128c-4.16-4.16-10.923-4.16-15.083,0c-4.16,4.16-4.16,10.923,0,15.083l120.448,120.448
			L365.781,440.472c-4.16,4.16-4.16,10.923,0,15.083c2.091,2.069,4.821,3.115,7.552,3.115c2.731,0,5.461-1.045,7.552-3.115l128-128
			C513.045,323.395,513.045,316.632,508.885,312.472z"/>
	</g>
</g>
<g>
	<g>
		<path d="M501.333,309.336H266.667c-135.275,0-245.333-110.059-245.333-245.333c0-5.888-4.779-10.667-10.667-10.667
			S0,58.115,0,64.003c0,147.051,119.616,266.667,266.667,266.667h234.667c5.888,0,10.667-4.779,10.667-10.667
			S507.221,309.336,501.333,309.336z"/>
	</g>
</g>
<g>
</g>
<g>
</g>
<g>
</g>
<g>
</g>
<g>
</g>
<g>
</g>
<g>
</g>
<g>
</g>
<g>
</g>
<g>
</g>
<g>
</g>
<g>
</g>
<g>
</g>
<g>
</g>
<g>
</g>
</svg>