<?xml version="1.0" encoding="UTF-8"?>
<!DOCTYPE svg PUBLIC "-//W3C//DTD SVG 1.1//EN" "http://www.w3.org/Graphics/SVG/1.1/DTD/svg11.dtd">
<!-- Creator: CorelDRAW 2020 (64-Bit Оценочная версия) -->
<svg xmlns="http://www.w3.org/2000/svg" xml:space="preserve" width="4.3541mm" height="4.354mm" version="1.1" style="shape-rendering:geometricPrecision; text-rendering:geometricPrecision; image-rendering:optimizeQuality; fill-rule:evenodd; clip-rule:evenodd"
viewBox="0 0 1.83 1.83"
 xmlns:xlink="http://www.w3.org/1999/xlink"
 xmlns:xodm="http://www.corel.com/coreldraw/odm/2003">
 <defs>
  <style type="text/css">
   <![CDATA[
    .fil0 {fill:#F7F7F7}
   ]]>
  </style>
 </defs>
 <g id="Слой_x0020_1">
  <metadata id="CorelCorpID_0Corel-Layer"/>
  <g id="pinterest_2_">
   <g>
    <path class="fil0" d="M0.91 0c-0.5,0 -0.91,0.41 -0.91,0.91 0,0.37 0.23,0.7 0.55,0.84 -0,-0.06 -0,-0.14 0.02,-0.21 0.02,-0.07 0.12,-0.5 0.12,-0.5 0,0 -0.03,-0.06 -0.03,-0.14 0,-0.14 0.08,-0.24 0.18,-0.24 0.08,0 0.12,0.06 0.12,0.14 0,0.08 -0.05,0.21 -0.08,0.32 -0.02,0.1 0.05,0.18 0.14,0.18 0.17,0 0.29,-0.22 0.29,-0.49 0,-0.2 -0.13,-0.35 -0.38,-0.35 -0.28,0 -0.45,0.21 -0.45,0.44 0,0.08 0.02,0.14 0.06,0.18 0.02,0.02 0.02,0.03 0.01,0.05 -0,0.02 -0.01,0.06 -0.02,0.07 -0.01,0.02 -0.02,0.03 -0.05,0.02 -0.13,-0.05 -0.19,-0.19 -0.19,-0.35 0,-0.26 0.22,-0.57 0.65,-0.57 0.35,0 0.58,0.25 0.58,0.52 0,0.36 -0.2,0.63 -0.49,0.63 -0.1,0 -0.19,-0.05 -0.22,-0.11 0,0 -0.05,0.21 -0.06,0.25 -0.02,0.07 -0.06,0.14 -0.09,0.2 0.08,0.02 0.17,0.04 0.26,0.04 0.5,0 0.91,-0.41 0.91,-0.91 0,-0.5 -0.41,-0.91 -0.91,-0.91z"/>
   </g>
  </g>
 </g>
</svg>
