<?xml version="1.0" encoding="UTF-8"?>
<!DOCTYPE svg PUBLIC "-//W3C//DTD SVG 1.1//EN" "http://www.w3.org/Graphics/SVG/1.1/DTD/svg11.dtd">
<!-- Creator: CorelDRAW 2020 (64-Bit Оценочная версия) -->
<svg xmlns="http://www.w3.org/2000/svg" xml:space="preserve" width="6.6299mm" height="5.9642mm" version="1.1" style="shape-rendering:geometricPrecision; text-rendering:geometricPrecision; image-rendering:optimizeQuality; fill-rule:evenodd; clip-rule:evenodd"
viewBox="0 0 5.29 4.76"
 xmlns:xlink="http://www.w3.org/1999/xlink"
 xmlns:xodm="http://www.corel.com/coreldraw/odm/2003">
 <defs>
  <style type="text/css">
   <![CDATA[
    .fil0 {fill:#666666}
   ]]>
  </style>
 </defs>
 <g id="Слой_x0020_1">
  <metadata id="CorelCorpID_0Corel-Layer"/>
  <path class="fil0" d="M2.8 3.41c-0.04,0.02 -0.05,0.05 -0.09,0.08l-0.44 0.4c-0.07,0.06 -0.11,0.12 -0.19,0.16l0.12 -0.82c0.03,-0.19 -0.01,-0.09 0.18,-0.29 0.03,-0.03 0.05,-0.04 0.08,-0.07l0.33 -0.31c0.04,-0.03 0.05,-0.04 0.08,-0.07l0.24 -0.23c0.06,-0.06 0.11,-0.09 0.17,-0.15l0.65 -0.61c0.06,-0.05 0.1,-0.1 0.16,-0.16 0.05,-0.04 0.14,-0.09 0.14,-0.18 0,-0.14 -0.28,0.07 -0.37,0.12l-2.22 1.38 -1.12 -0.37c-0.05,-0.02 -0.04,-0 -0.06,-0.04 0.06,-0.01 0.21,-0.08 0.27,-0.11l1.37 -0.58c0.19,-0.08 0.37,-0.16 0.55,-0.23 0.18,-0.07 0.36,-0.15 0.55,-0.23l1.66 -0.7c0,0.06 -0.02,0.12 -0.03,0.19 -0.01,0.07 -0.02,0.11 -0.04,0.18l-0.67 3.45c-0.03,0.17 -0.09,0.14 -0.34,-0.07l-0.99 -0.75zm-2.8 -1.17c0,0.17 0.06,0.29 0.21,0.37 0.1,0.06 0.79,0.29 0.98,0.35 0.1,0.03 0.12,0.02 0.15,0.12 0.08,0.27 0.17,0.53 0.25,0.81 0.07,0.23 0.16,0.65 0.41,0.65 0.07,0 0.12,0 0.19,-0.03 0.06,-0.03 0.39,-0.34 0.46,-0.41l0.18 -0.16 0.72 0.55c0.16,0.12 0.28,0.26 0.5,0.26 0.21,0 0.37,-0.12 0.44,-0.26 0.06,-0.11 0.34,-1.64 0.36,-1.74 0.08,-0.39 0.15,-0.79 0.23,-1.17 0.04,-0.2 0.08,-0.4 0.11,-0.59 0.05,-0.32 0.2,-0.68 0.01,-0.89 -0.19,-0.21 -0.46,-0.08 -0.65,-0 -0.59,0.25 -1.31,0.54 -1.88,0.79l-0.63 0.26c-0.32,0.14 -1.73,0.71 -1.87,0.8 -0.08,0.05 -0.17,0.16 -0.17,0.27z"/>
 </g>
</svg>
